<svg xmlns="http://www.w3.org/2000/svg" width="393" height="254">
  <path fill="#006853" d="M0 240.746h5.752V0H0Zm0 0"/>
  <path d="M121.991 87.562s-.518 2.94-.486 3.183l-.878-.158c-.022.021.54-2.57.677-3.13a1.775 1.775 0 0 0-1.036.095v-.01l.348-.741 2.4.434.17.814c-.212-.201-.857-.423-1.195-.487m-2.094.159c-.095.687-.401 2.062-.285 2.707l-.888-.127c.39-1.005.666-2.686.602-3.764l.889.137a3.587 3.587 0 0 0-.318 1.047m-2.368 2.242c-2.263.433-2.263-3.405-.444-3.934 2.273-.476 2.294 3.416.444 3.934m-1.956-3.014c-.106.434-.423.73-.952.888.222.751.36 1.005.75 1.819v.022l-.602-.096c-.127-.074-.878-1.131-1.1-1.702-.137.476-.264 1.068-.211 1.501l-1.026-.158c.19-.296.984-3.416.952-3.743.888.106 2.464.264 2.189 1.47m-4.388 1.755c-.54.19-1.301-.022-1.85-.127l.75-3.817c2.474-.17 3.5 3.034 1.1 3.944m-3.522-.328c-.274-.053-1.765-3.098-1.765-3.098s-.36 2.368-.455 2.527l-.677-.095.772-3.701.75.095c.012.095 1.196 2.601 1.196 2.601s.391-2.03.423-2.21l.581.159zm-3.108-2.39c-.804 2.739-3.965 1.237-3.024-1.205.793-2.654 3.954-1.248 3.024 1.205m-3.3-2.95c-.137.116-.613 3.458-.58 3.785l-.9-.18c.17-.285.381-2.611.381-2.611l-1.544 2.39-.91-2.697s-.359 1.935-.38 2.56l-.877-.117c.285-.465.835-3.891.835-3.891l.91.169c.031.18.718 2.516.718 2.516s1.206-2.04 1.28-2.146l1.068.2zm22.121 2.347c-1.12 0-2.178-.01-2.696-.052-5.88-.571-11.705-2.253-17.574-3.183-1.692-.275-3.077-.518-4.272-.518-2.495-.011-4.187 1.078-6.196 5.35-.846 1.629 2.009 3.172 2.643 3.246-2.358-2.009-1.533-2.611.328-2.611 2.56 0 7.106 1.142 8.005 1.247 5.371.857 10.806 2.4 16.262 2.982.19.022.381.032.55.032 4.018 0 3.828-4.388 6.588-6.567-.487.043-2.115.074-3.638.074m-19.963-1.49c-1.396-.381-1.935 2.505-.762 2.992 1.428.38 1.935-2.485.762-2.993m10.722 2.126-.402 1.47c1.131.21 1.628-1.29.402-1.47m3.5.518c-1.333-.328-1.766 2.453-.656 2.908 1.364.317 1.776-2.453.656-2.908m-6.852-1.184c-.19.74-.487 2.146-.582 2.897 1.755.38 2.295-2.56.582-2.897m-42.951-2.168.666 3.394-.783.138-.687-3.384c-.476.095-.75.095-1.396.38l-.022-.76 3.363-.434.232.645c-.306-.117-1.374.022-1.374.022m-2.464 3.975-2.326.54c.042-.36-.74-3.627-.941-3.923l2.453-.571-.19.835c-.339-.095-.74-.095-1.195 0l.285 1.184 1.354-.306.232.57c-.275-.042-1.1.17-1.47.244l.297 1.237c.666-.159 1.226-.38 1.66-.687l.01.01zM58.6 88.367c-1.703.042-1.946-2.39-2.348-3.585l.825-.158c.402 1.046.286 3.489 2.041 3.172 1.269-.571.243-2.58.106-3.553l.814-.117c.307 1.608 1.047 4.41-1.438 4.24m-2.39.37-2.337.519c.043-.36-.708-3.627-.898-3.923l2.453-.55-.19.825c-.35-.095-.751-.095-1.206-.011l.275 1.195 1.364-.307.222.582c-.275-.042-1.09.158-1.47.222l.286 1.247c.666-.148 1.226-.37 1.66-.666h.01zm-4.377.952c.052-1.163-.328-2.97-.857-4.007l1.142-.243c-.053 1.152.328 2.971.857 4.007zm-1.153-.708c-.486 1.152-1.935 1.417-3.066 1.618.052-.36-.635-3.69-.846-3.997 1.956-.836 4.758-.022 3.912 2.379m18.78-7.391c-8.914.01-17.807 3.817-26.731 3.817-1.068 0-2.136-.053-3.204-.18 2.76 2.189 2.57 6.567 6.587 6.567.17 0 .36-.011.55-.032 5.456-.582 10.891-2.125 16.263-2.971.93-.148 5.382-1.227 7.983-1.238.941 0 1.639.149 1.85.519.286.518-1.49 2.009-1.501 2.072 0 .022.01.022.022.022.18 0 1.163-.56 1.892-1.047 2.908-2.094-3.193-7.529-3.711-7.529m-20.25 5.466c-.359-.222-.803-.285-1.331-.2.105.792.401 2.273.634 3.044 1.48-.21 1.924-2.061.698-2.844m35.158-6.62c1.11-.993 1.882-1.332 3.32-1.68-.402.898-.782 1.744-1.173 2.643-.72-.328-1.428-.645-2.147-.962m-.285-21.508h15.744c1.29 12.044-5.763 16.073-15.744 20.27zm23.273-6.45c-.37-.772-1.216-5.139-2.432-4.187 5.572 10.394 1.85 24.077-7.814 30.664-2.834 1.713-6.366 4.568-9.718 2.665 2.168-8.438 12.551-4.875 14.804-20.968-.275-.138-.381-.222-.635-.264-.328 2.241-.888 4.409-1.734 6.481.91-2.39.328-9.886.497-10.299-.095-.127-.19-.18-.497-.55.053.9 0 1.227.01 2.433H84.085V42.01h15.459v9.273c-.01.053.063.497.095.656.222-.338.233-.328.391-.434v-9.97H67.59l-.032 8.395h.486v-7.92h15.554v16.442H68.593c-.042.043.01-.264-.042-.222 0-.042-.096.265-.096.222h-.423c-.01-.772.011-1.237.011-1.268l-.486-.011c-.35 1.226.687 11.546 2.379 13.355-3.394-3.289-4.462-9.115-3.817-13.503 0 0-.317-.243-.666-.56-1.068 6.185 1.269 12.286 5.604 16.706.38.402.793-.032 1.258-.148-.095-.095-.296-.254-.433-.444.169.17.317.328.433.444l-.243-.666c-3.405-2.59-3.955-10.024-4.029-13.429h15.555s-.011 20.608-.022 20.65c-3.31-.158-5.54-3.753-8.745-3.795 4.6 2.728 12.985 9.284 18.293 6.408.042.052.032.042.074.095-.56.698-2.517 2.02-3.394 1.681-1.449-.867-3.68.72-2.654 2.326.137.19.211.36.063.603-5.73-.54-10.891-3.965-15.723-6.894-.042.053-.042.042-.085.095 1.85 2.496 8.47 5.604 8.47 5.604l-.01 3.722s.422.275.708.466V85.87c1.734.592 5.244 1.691 5.244 1.691l.011 2.517.677-.434-.042-1.882.94-.253c.593-.17.973-.73.9-1.343a.706.706 0 0 1-.392-.814c.138-.73 1.026-.751 1.385-.307.72.317 1.428-.54 2.136-.75.994-.604 2.231-1.132 2.686-2.285a1 1 0 0 1 .486-.603c2.02-1.141 3.966-2.41 5.605-4.06 7.02-5.932 9.474-16.136 7.148-24.87M92.596 62.851c-.074-.074-.265.011-.286.053.01.38-.391.265-.507.529.073.158.19.285.359.264.211-.021.19.243.391.265.92-.423 2.02-.318 2.802-1.047-.296-.243-.36-.592-.433-.952-.529.042-1.047-.031-1.502.222-.052.243.117.37.243.582-.38.158-.719.243-1.068.084m-1.057-11.97c-.687-.031-1.226-.095-1.025.73.031.201.105.804.221.941.053.074.043.159-.021.212-.275.158-1.333-.275-1.206-.635 0-.296-.296-.37-.39-.158-.043.095-.117.095-.223-.022-.2-.275-.465.095-.36.307a.13.13 0 0 1-.105.19c-.296.127-.275.518.127.54.877.401 1.65.824 2.675.676l-.01.01c1.11-.084.538-.295.486-1.078-.19-.835 1.237-1.385-.17-1.713m2.105-1.575.381.783s.804.36.92.465c.455.328.38 1.258-.032 1.152-.676-.274-1.078-1.226-1.544-1.808-.116-.095-.444-1.057-.655-.814-2.76.613.507 1.322 0 2.358-.095.148-.402.867-.275.973.232.285.75.486 1.026.856.454.434.052.941-.508.53-.317-.233-.698.115-.37.433.022.063-.19.148-.233.18-.327.443.212.422.508.2.159-.084-.01.391.264.317.508-.116 1.28-.37 1.428-1.163.317-.719-.412-.602-.592-1.237-.18-.253-.201-1.216.2-.867.36.465.857.73 1.301.317.423-.39.042-1.332-.18-1.755-.39-.835-.856-1.639-.824-2.633.56-.666 1.216.518 1.607-1.332-1.311.084-2.601.962-1.946 2.432.392.835.307.772-.475.613m-2.845.56c.159-.158.634-.613.677-.708.052-.106.063-.106.401-.137.9-.127 1.365-.497 1.618-1.48.127-.286-.031-.92-.222-1.058-.074-.053-.106-.148-.052-.18.169-.022.518-.158.581-.36-.106-.19-.338-.042-.655-.147-.233-.106-.857-.307-1.11-.17-.18.222-1.238.243-1.048.56.032.117.117.392.117.392l.476.053.01.349s-.348.074-.465.095c-.275.423.698.455.952.127.169-.2.444-.233.433-.01-.137.285-.602.422-.867.56-.412.063-.518.867-.835 1.131-.888.17-1.205.148-2.083-.571-.317-.37-.571-.095-.338.2-.148.054-.963-.412-.593.37l.053.075c-.402.581.201.391.529.56.719.286 1.501.508 2.421.35m-2.485-3.574c.265.169.465.951.624 1.057.307.402.941 1.46 1.554 1.248v-.022c.18-.074.36-.613.37-.687 0-.022-.105-.117-.222-.201-.581-.508-.94-1.005-.951-1.47-.022-.158.328-.349.306-.497-.01-.529-.454.064-.623-.021-.096-.16-.423-.593-.624-.381-.127.063.031.37-.074.455-.042.052-.074.063-.212.063-.465-.01-.528.285-.148.455M70.644 55.08a1.377 1.377 0 0 1-.19-.244c-.022.222.095.487.063.698-.032.18-.084.434-.137.603.285.275.444.296.76.19-.041-.433-.147-.94-.496-1.247m6.862 1.1c-.052.274.201.39.244.612-.328.212-.677.222-1.016.265-.18-.18-.253-.508-.57-.412-.18.042-.085.232-.222.306-.35-.022-.35-.022-.402.328.116.063.222.127.328.19-.265 1.248 3.14-.042 3.648-.412-.17-.286-.381-.476-.445-.804-.137-.539-1.152-.095-1.565-.074m-5.9-2.146c-.539 1.004-.38 1.892.265 2.728 1.205.042 1.702-1.607 1.501-2.601.127-.085.243-.17.37-.254-.031-.138-.063-.243-.095-.36-.222-.01-.423-.021-.613-.031-.434-.56-.698-.571-1.216-.064-.36-.137-.36-.137-.603.18.095.18.211.317.391.402m9.887 1.48c-.36.17-.825.338-1.1-.095.613-.243 1.375-.18 1.798-.762.306-.38.275-1.142-.317-1.342-1.555-.434-3.194.348-4.759.486-2.95.793-.846-.634-3.182-.624.835 2.4 3.351.857 5.086.687-.127.275-.413.381-.53.635.625-.117 1.428.116 1.894-.36.232-.655 1.797-.73 1.427.159-1.47 1.438-6.08.084-8.12 1.015-.307.93-.857 1.554-1.745 1.808-.74-.455-1.068.063-1.798-.137-.074-.085-.137-.159-.222-.222-.022-.011-.042-.032-.053-.043a.298.298 0 0 0-.084-.042c0 .011.01.022.01.032.011.423-.095.846-.264 1.237.952.37 1.999-.084 2.94-.338.38-.117.602-.497 1.015-.497.994.074 1.565-.762 2.421-.994 1.058-.212 2.126-.37 3.204-.35 1.237 1.682 1.46.255 2.57.826-.032.158-.064.317-.096.497.106.042.201.063.286.095-.106.423.518.666.602.137.011-.063-.021-.148.074-.158.656-.36-.36-2.104-1.057-1.65m-10.49-4.282c-.042-.434-.148-.941-.497-1.248-.38-.402-.507-.952-.116-1.375-.19-.19-.455-.031-.645-.296-.254-.285-.402.043-.455.339-.697.095-.296.327-.137.698.222.634 1.047 2.178 1.85 1.882m6.377-.148c-.053.275.2.401.243.613-.328.211-.677.222-1.016.264-.18-.18-.264-.507-.57-.412-.18.042-.085.233-.222.317-.35-.031-.35-.031-.402.317.106.064.222.138.328.201-.265 1.248 3.14-.052 3.648-.423-.17-.285-.381-.475-.445-.803-.137-.54-1.152-.095-1.565-.074m-5.9-2.147c-.55 1.005-.391 1.903.254 2.739 1.216.042 1.702-1.607 1.512-2.612.127-.084.243-.17.37-.254a12.02 12.02 0 0 1-.106-.36l-.603-.03c-.444-.561-.708-.572-1.226-.064-.349-.138-.349-.138-.592.18.084.18.2.317.391.401m9.897 1.48c-.36.17-.835.339-1.11-.084.613-.254 1.375-.19 1.798-.772.317-.38.285-1.142-.317-1.343-1.555-.433-3.194.35-4.759.487-2.95.793-.846-.635-3.182-.624.835 2.4 3.34.856 5.096.687-.127.275-.412.38-.529.635.614-.117 1.428.116 1.883-.36.243-.656 1.797-.73 1.438.159-1.48 1.438-6.09.084-8.142 1.015-.307.93-.846 1.554-1.745 1.808-.624-.38-.952-.074-1.49-.085.02.17.073.339.116.508.042.18.063.36.084.529.613-.064 1.237-.307 1.83-.466.38-.116.591-.497 1.014-.486.994.063 1.565-.761 2.422-1.004 1.057-.201 2.125-.37 3.204-.35 1.237 1.692 1.47.254 2.57.825-.022.17-.054.328-.096.497.116.043.2.074.296.106-.116.413.518.666.603.127.01-.063-.022-.148.063-.158.666-.36-.349-2.105-1.047-1.65m-10.203-4.621c-.043-.434-.148-.941-.487-1.248-.391-.391-.518-.941-.116-1.364-.201-.18-.455-.032-.656-.296-.243-.275-.391.042-.444.338-.687.096-.296.328-.137.688.222.645 1.036 2.167 1.84 1.882m6.323-.159c-.064.275.19.402.243.613-.328.212-.666.222-1.015.265-.18-.18-.254-.497-.571-.413-.18.043-.074.233-.212.307-.338-.022-.338-.022-.401.328.105.063.222.127.327.19-.264 1.237 3.12-.053 3.617-.412-.159-.286-.37-.476-.434-.793-.137-.55-1.142-.106-1.554-.085m-5.858-2.125c-.54.994-.38 1.882.264 2.717 1.195.043 1.682-1.596 1.491-2.59.117-.085.243-.17.36-.254a15.464 15.464 0 0 0-.096-.36l-.602-.031c-.434-.55-.698-.56-1.216-.064-.35-.126-.35-.126-.592.18.095.18.211.317.39.402M69.1 47.139c.159.01.307-.17.465-.011a1.857 1.857 0 0 0-.042.243c.962.423 2.02-.053 2.971-.307.381-.116.603-.497 1.016-.497.983.074 1.554-.75 2.4-.994 1.047-.2 2.104-.36 3.183-.349 1.226 1.682 1.448.254 2.548.825-.032.159-.064.328-.095.497.116.042.2.074.285.095-.106.423.518.667.603.138.01-.063-.022-.148.063-.159.666-.36-.349-2.093-1.036-1.639-.36.17-.825.328-1.1-.095.603-.243 1.364-.18 1.777-.75.317-.381.285-1.143-.307-1.344-1.544-.423-3.172.35-4.727.487-2.929.793-.835-.624-3.161-.613.835 2.379 3.33.845 5.054.676-.116.275-.402.38-.518.635.613-.117 1.417.116 1.872-.36.232-.655 1.787-.73 1.416.159-1.459 1.417-6.037.084-8.067 1.004-.307.93-.836 1.544-1.735 1.798-.73-.455-1.057.063-1.776-.138-.211-.222-.412-.475-.73-.232v.338c-.338-.095-.73.38-.36.592m15.682 18.98c.402.614.518 1.587 1.206 1.946.317 0 .793.286.983-.084-.2-.73-1.11-1.153-.983-1.999.042-.19-.022-.38-.19-.55-.35.096-1.08-.697-.815.254-.222.074-.349.222-.2.434m2.125-3.225c-.053-.952-1.153-1.555-.825-2.517a.404.404 0 0 0-.117-.518c-.317.084-.317.084-.57-.074-.402-.2-.466.254-.424.54-.084.042-.158.073-.274.126.285.814 1.141 2.855 2.21 2.443m0 11.303c-.36-.687-.91-1.311-1.164-2.03.307-.444.17-1.005-.412-.645-.148-.296-.37-.36-.645-.275-.074.18-.116.37.095.508.011.01-.01.063-.01.095l-.19.063c-.149.37.232.592.37.888.401.645 1.004 2.21 1.955 1.396m4.03-5.784c-.233 0-.276.296-.117.434.148.18.306-.011.476.042.01.095.01.18.021.254.952.052 2.38-.793 2.887-1.555-.2-.317-.391-.613-.592-.92-.518.17-1.1.159-1.406.624l.528.56c-.349.19-.75.519-1.131.201-.148-.137-.582-.073-.476.201.01.042-.01.096-.01.138-.075.01-.128.021-.18.021m1.437 3.838c-.518.127-1.036.17-1.364.698.127.18.254.339.392.529-.254.634-.889.529-1.491.56.063.201.084.307.127.445-.254.137-.35.36-.307.676.074.022.148.053.232.074.17-.2.466-.412.54-.021 1.078-.36 2.051-1.016 2.57-2.03-.307-.244-.572-.53-.699-.931m4.008-4.314c-1.766-.592-4.547 3.257-5.72 2.126-.286-.624-1.164-.55-1.714-.381.667.476 1.026 1.523 2.03 1.184 1.143-.222 2.03-1.142 3.014-1.565.032.328-.306.476-.444.793.677-.222 1.28-.412 1.776-.835-.084-1.861 2.58-.56.022.592.455.011.772.212 1.079-.169.581-.518.613-1.269-.043-1.745m-7.074-2.908c-.18-.105-.402-.105-.603-.095-.338-.856-.93-.529-1.417-.022-.719-.285-.602.36-.222.709-.37.888-.116 2.189.815 2.57.994-.413 1.258-1.608 1.205-2.58.307-.043.55-.392.222-.582m-2.548 8.259c.93 2.22 2.326-.603 1.977-1.82.645-.528.465-.834-.307-.887-.275-.582-.867-.645-1.28-.148-.137.18-.348.116-.538.127-.402.19-.18.623.169.719-.19.676-.286 1.343-.022 2.009m.244-12.583c-.317.898.01 2.093.846 2.59.951-.433 1.565-1.681 1.226-2.728.233-.19.518-.285.434-.602-.159-.36-.72-.096-.867-.519-.36-.486-.836-.084-1.132.243-.211.022-.433-.084-.634.022-.211.38.37.603.127.994m8.935 9.516c-1.978-.253-1.681 1.1-2.654.783.18-.212.666-.339.507-.666-1.448.634-2.971 1.078-4.409 1.734-.74.782-.497 2.336-2.157 2.474-.053.804-1.184 1.353-1.893.994-.275.264-.158.328-.116.581-.233.212-.56.709-.042.709.158-.032.285-.275.454-.2a4.4 4.4 0 0 1-.042.327c.138 0 .317.042.37-.022.222-.275.55-.042.804-.264.856-.571 2.062-1.1 1.998-2.284 1.502-.666 2.38-3.098 4.325-2.242.973.529 1.237-1.036 2.104-1.078.243.57.36.528.677.338.54.423.444-.243.666-.55.022-.296-.285-.645-.592-.634m-11.124-6.154c.19.063.116.286.201.402.994.063 1.998-.2 2.992-.328.751 0 .72-.655 1.27-.75 1.332.073 2.156-1.1 3.404-1.29.994-.286 2.347-.646 3.225.052.222.233.529.286.846.222.423-.074.92-.169 1.142.328-.063.074-.138.148-.233.243.043.095.085.2.138.307.211-.011.243.158.317.296.117.18.38.18.423-.011.053-.233.296-.116.37-.317.042-.614-.095-1.364-.708-1.682-.296-.274-1.48.297-1.512-.285.877.2 2.58-.952 1.406-1.702-1.967-.455-4.145.497-6.143.719-.793.18-.402-1.11-2.136-.762 1.12 2.337 3.531.688 5.413.666.011.201-.348.19-.264.455.54-.169 1.47.127 1.787-.423.17-.666 1.565-.507 1.153.265-1.047.666-2.612.36-3.839.497-1.512.127-3.161.169-4.578.687-.275.878-.666 1.787-1.67 1.988-.71-.687-1.735.127-2.496-.571-.243.053-.296.2-.392.391-.37.138-.497.349-.116.603m10.437 1.861c1.152-.021 3.827-1.29 1.882-2.337-1.09-.18-2.179.35-3.225.593-4.22 1.67-1.745-.37-4.367-.149.888 2.232 3.119 1.079 4.79.56.052.244-.254.308-.212.55.56-.116 1.1-.232 1.629-.338.232-1.1 2.23-1.11 1.31-.01-2.304 1.004-5.032.824-7.443 1.512-1.618 4.23-4.43 1.343-4.399 2.559-.634.063-.624.666.022.623.01 1.227 3.13-.2 3.711-.581.138-.296.265-.571.391-.846.952.455 1.618-.91 2.443-1.142.814-.17 1.882-.973 2.58-.222.772.846 1.935-.455 2.612.412-.254.666.084.37.2.793-.01.37.614.37.624-.01 0-.17.022-.275.18-.339.35-.528-.391-1.1-.645-1.544-.57-.55-1.512.497-2.083-.084M52.394 23.146c-.35.38-.941-.18-.571-.55.349-.38.93.18.57.55m-1.067 2.274-.243.127c-.222-.455-.582-1.333-.593-2.094-.01-.18.265-.19.265-.022 0 .54.211 1.237.57 1.988m3.004-.771-.339.042c-.867-.708-1.945-1.026-2.971-.846-.01-.095-.032-.19-.042-.275 1.184-.2 2.41.212 3.352 1.079m-.941-1.28c-.36.381-.941-.18-.582-.55.349-.38.941.18.582.55m-1.999-.211c-.349.38-.94-.18-.57-.55.348-.37.93.18.57.55m3.701 1.3c-.349.381-.941-.18-.571-.55.349-.37.941.19.571.55m-.793-.666c-.36.38-.941-.18-.582-.55.35-.37.941.19.582.55m-7.592 1.713c.529.022.529-.793.01-.793-.507-.01-.528.804-.01.793m2.337.878.253-.085c-.169-.475-.539-1.342-1.078-1.882-.117-.127-.317.053-.201.18.38.37.74 1.005 1.026 1.787m-2.612 1.565.264-.222c.106-1.11.635-2.094 1.48-2.707-.052-.085-.116-.148-.168-.222-.973.698-1.534 1.872-1.576 3.151m45.827 15.67h5.573v12.974H85.733V43.617Zm6.725 12.964c.011-.243-.264-.434-.507-.349v.053c-.444 1.988-.222-6.186-.265-5.89l.402.17v-.952l-.402.169v-6.027c.053-.296.529-.043.275.158v.053c.55.17.709-.719.117-.719l.37-.645-.085-.084c-.01 0-.666.36-.677.36 0-.55-.94-.413-.76.116h.062c.19-.233.476.19.159.253h-5.562l.18-.37h-1.015l.18.37h-5.552c-.338-.042-.053-.497.148-.253h.053c.19-.53-.75-.667-.761-.117 0 .011-.666-.36-.666-.36l-.085.085.37.645c-.602 0-.433.888.117.72v-.054c.433-1.988.232 6.144.264 5.869l-.391-.17v.952l.391-.158c-.032-.148.17 7.814-.264 5.879v-.053c-.55-.17-.72.719-.117.719l-.37.645.085.084s.666-.37.666-.359c.01.55.951.412.761-.116h-.053c-.084.127-.317.063-.306-.096 0-.084.063-.148.148-.158h5.562l-.18.38h1.015l-.18-.38h5.562c.074.01.148.074.148.158 0 .159-.232.222-.317.096h-.053c-.18.528.75.666.761.116.011-.01.667.36.667.36l.095-.085-.37-.645a.37.37 0 0 0 .38-.37M86.6 50.638v-.01c-.01.01 0 .116 0 .127.022-.233.38-.064.201.095l.053.053c.37.042.423-.508.053-.53v-.01l.444-.2v-.128l-.444-.2v-.011c.37-.022.317-.571-.053-.53l-.053.054c.18.158-.18.327-.2.095 0 .022-.012.127 0 .137v-4.79h.37v-.348h4.123c.233.031.042.348-.106.18l-.063.063c-.042.36.57.38.57.021l.212.434h.148l.212-.434c-.011.36.602.339.56-.021l-.053-.064c-.148.17-.349-.137-.116-.18h4.124v.35h.38c-.042-.074.16 5.879-.19 4.557l-.063-.053c-.36-.042-.413.508-.042.529v.01l-.444.201v.127l.444.201v.011c-.37.01-.318.571.042.529l.063-.053c.35-1.354.148 4.726.19 4.557h-.38v.36h-4.113c-.244-.032-.053-.36.105-.19l.053-.053c.042-.36-.55-.392-.56-.043h-.011l-.211-.422h-.138l-.211.422c-.022-.348-.603-.317-.571.043l.063.052c.159-.169.338.16.106.19H86.97v-.359h-.37zm5.72-6.196zm4.643 5.139zm-5.742 6.186h-.01zm1.12 0h-.01.01m4.24.36h.762V44.082H86.22v12.043zM89.35 41.29c.275-1.09.656-2.96 1.259-3.88l-1.185-.402c.011 1.184-.613 3.013-1.015 4.134.455.063.455.063.941.148m-6.47-2.189c-.012-.74.094-2.04-.223-2.675h1.523c-.243.687-.688 3.838.613 3.68.518.01 1.026-.35 1.015-.888-.021-.751.106-2.147-.222-2.792h1.523c-.35 1.184-.35 3.267 0 4.452h-1.29c.032-.096.042-.243.042-.444-1.322.94-3.109.475-2.982-1.333m-3.257 1.216c1.713-.666.222-3.33-1.3-2.707-1.703.656-.233 3.342 1.3 2.707m2.612.688.01.021c-.686.55-1.553.328-2.294-.063-2.136 1.195-4.451-1.618-2.728-3.426 1.798-2.157 5.382.296 3.659 2.665.56.433 1.015.697 1.353.803m-10.035.592h1.428c-.54-.846-.973-1.544-.973-1.544.497-.286 1.544-.709 2.01-.677l-1.122-.856-3.426 2.051.392 1.322.01.01a3.1 3.1 0 0 1 1.164-1.247c.105.2.285.54.518.941M67.09 47.9c-2.062-.127-2.485-3.69 0-3.151v-.867c-3.225-.19-3.183 4.927 0 4.821zm-.91 1.353c-.74-.581-1.691.455-2.431.635-1.29.074-.275-1.534.507-1.64l.011-.021-.624-.455c-1.163.592-2.051 3.11-.169 3.162.402.022 1.417-.687 1.745-.761.888-.17.613 1.015.084 1.3.254-.01.529-.053.783.022.486-.687.803-1.692.095-2.242m27.524 31.193 2.474-1.427c-.317-.233-2.242-3.384-2.305-3.765l-2.347 1.354.105.962h.022c.37-.455.888-.888 1.565-1.269l.73 1.185c-.381.2-1.206.697-1.513.75l.434.529 1.375-.793.697 1.142c-.465.254-.898.391-1.3.412zm9.802-8.692.423-.824-3.543-2.38-.39.74c.126.18 2.442 1.545 2.442 1.545s-3.817.497-3.987.793l3.543 2.432.412-.593c-.18-.116-2.125-1.385-2.125-1.385s3.119-.36 3.225-.328m1.818-3.552.783-2.665c-.402.032-3.997-1.015-4.314-1.258l-.74 2.537.75.635.011-.01c-.053-.582.022-1.238.233-1.968l1.364.402c-.138.391-.37 1.29-.56 1.533l.676.106.434-1.48 1.31.38c-.158.487-.37.868-.644 1.153zm-7.592 9.611c2.77-1.205 2.147-3.954-.972-2.696-1.312-.38.349-1.713 1.216-1.417l.021-.01-.666-.783c-.973.433-2.548 1.755-1.713 2.876.582.74 1.745-.053 2.506-.042 1.269.232-.084 1.543-.877 1.47l-.011.021M64.88 58.262l.064-.962c-1.29.243-3.384.243-4.663-.01l-.064.961c1.29-.232 3.373-.232 4.663.011m.434 15.787.761 1.057c.814-.993 2.485-2.21 3.69-2.664l-.771-1.058c-.297.487-.942.963-1.45 1.312l-1.173-1.618c.497-.37 1.142-.846 1.703-.973l-.772-1.057c-.804 1.004-2.475 2.21-3.68 2.664l.761 1.058c.296-.476.941-.952 1.449-1.3l1.174 1.617c-.497.37-1.142.835-1.692.962m-2.781-7.275c.952-1.744 4.155-.708 2.834 1.28-.994 1.681-4.135.73-2.834-1.28m-.265 2.337c2.19 2.094 5.636-1.258 3.363-3.415-2.178-2.115-5.678 1.258-3.363 3.415m-1.607-5.805.254.983 4.526-.56-.222-.888c-.233-.053-3.056.465-3.056.465s2.686-3.12 2.622-3.49l-4.568.508.095.793 2.686-.38s-2.23 2.527-2.337 2.569m58.527 6.503c-.127.137-.941 2.443-1.206 2.358-.116-.19-.37-.307-.581-.243-.117-.063-.17-.233-.106-.38.159-.16.91-2.517 1.269-2.359.084.222.36.37.592.307.063.084.074.2.032.317m-2.2 8.047c.074-.582-.687-.91-.983-.413.074-.21-.211-2.432.2-2.432.17.127.403.149.582.022a.29.29 0 0 1 .233.296v2.39a.33.33 0 0 1-.032.137m1.185 4.156c-.709 4.06-5.922.042-2.19-1.681.18.402.773.412.942.01a1.76 1.76 0 0 1 1.248 1.671m.539-13.598c-1.142-.708-1.777 2.443-2.2 2.993-.2.454-.021.951.402 1.1l-.846 1.744c-.454-.063-.846.275-.846.793.17.687-.507 3.637.698 3.68v.814c-2.897.518-2.463 5.075.518 5.001 2.95.074 3.416-4.44.55-5.001v-.783c.444.074.836-.264.836-.793-.148-.666.465-3.51-.593-3.658l.635-1.322c1.089.582 1.723-2.495 2.136-3.013.19-.434.042-.931-.339-1.079l.487-1.015c-.138-.18-.413-.592-.687-1.036zm.677-1.703h.01a7.27 7.27 0 0 1-.264-.465c.022.19.106.36.254.465M83.788 3.595c-.138 1.142-.74 2.02-1.48 2.157v.286h1.448a1.448 1.448 0 0 0-.18.18c-2.58.57-2.844 4.493-.38 5.424-.963-.93-.223-2.707 1.13-2.665 1.354-.042 2.094 1.734 1.132 2.665 2.464-.93 2.189-4.854-.38-5.425a.725.725 0 0 0-.18-.18h1.448v-.285c-.74-.137-1.342-1.015-1.48-2.157 1.132.148 2.01.74 2.147 1.48h.296V1.047h-.296c-.138.74-1.015 1.332-2.147 1.48.138-1.142.74-2.02 1.48-2.157V.085h-4.039V.37c.74.138 1.343 1.015 1.48 2.157-1.13-.148-2.008-.74-2.156-1.48h-.286v4.028h.286c.148-.74 1.025-1.332 2.157-1.48m1.247 7.486c.994-1.84-2.41-1.84-1.417 0a1.414 1.414 0 0 1 1.417 0m-1.332 1.872c.37-.2.878-.2 1.258 0 1.27-1.967-2.537-1.956-1.258 0m.624 2.178c1.152.011 1.152-1.797 0-1.776-1.153-.022-1.153 1.797 0 1.776m0 2.22c1.152.022 1.152-1.786 0-1.776-1.153-.01-1.153 1.798 0 1.777m0 2.23c1.152.023 1.152-1.797 0-1.776-1.153-.021-1.153 1.798 0 1.777m-2.506.01h1.089c0-2.093-.19-6.027-1.502-8.892-.285-.645-1.3-.18-.994.454.91 1.988 1.407 4.98 1.407 8.438m3.923 0h1.089c0-3.457.497-6.45 1.406-8.438.307-.634-.708-1.1-.994-.454-1.3 2.865-1.501 6.799-1.501 8.892m-8.872-7.613c1.068.011 1.068-1.66 0-1.65-1.068-.01-1.068 1.66 0 1.65m-6.979 5.044c1.058.01 1.058-1.66 0-1.65-1.068-.01-1.068 1.66 0 1.65m9.02-5.795c1.068.022 1.068-1.65 0-1.638-1.068-.011-1.068 1.66 0 1.638m-11.578 9.316c1.068.01 1.068-1.66 0-1.639-1.068-.022-1.068 1.65 0 1.64m1.194-1.83c1.058.021 1.058-1.66 0-1.64-1.068-.02-1.068 1.661 0 1.64m6.398-5.774c1.068.011 1.068-1.66 0-1.65-1.058-.01-1.058 1.661 0 1.65M66.34 22.47c1.068.021 1.068-1.65 0-1.64-1.058-.01-1.058 1.66 0 1.64m5.086-6.99c1.057.022 1.057-1.65 0-1.639-1.068-.01-1.068 1.66 0 1.64m1.68-1.365c1.069.022 1.069-1.65 0-1.639-1.067-.01-1.067 1.66 0 1.64M99.31 17.89c-.022 1.068 1.66 1.068 1.639 0 .022-1.057-1.66-1.057-1.639 0m-.55-.867c1.068.01 1.068-1.66 0-1.65-1.068-.01-1.068 1.66 0 1.65m1.734 2.696c-.01 1.068 1.66 1.068 1.65 0 .01-1.057-1.66-1.057-1.65 0m.994 1.935c-.021 1.058 1.66 1.058 1.64 0 .02-1.068-1.66-1.068-1.64 0m-4.261-6.175c1.068.022 1.068-1.65 0-1.639-1.057-.01-1.057 1.66 0 1.64m-3.5-2.539c1.057.011 1.057-1.66 0-1.65-1.068-.01-1.068 1.661 0 1.65m-3.986-1.713c1.068.022 1.068-1.65 0-1.638-1.058-.011-1.058 1.66 0 1.638m2.04.751c1.068.011 1.068-1.66 0-1.65-1.068-.01-1.068 1.66 0 1.65m3.765 2.136c1.068.022 1.068-1.65 0-1.639-1.068-.01-1.068 1.66 0 1.64m-27.334 8.035 1.48-.486c2.316-4.187 6.165-7.286 10.722-8.427a11.513 11.513 0 0 0-.348-1.11c-5.192 1.332-9.506 5.054-11.854 10.023m30.75-.486 1.48.476c-2.348-4.96-6.662-8.681-11.854-10.014a12.29 12.29 0 0 0-.349 1.1c4.558 1.152 8.406 4.261 10.722 8.438M69.27 80.34c.581 1.09 3.954 4.071 4.864 2.665-1.65-.835-4.43-2.887-3.363-5.498-2.421-1.48-.285-3.85 1.597-1.84 2.009-1.237 4.24-.35 6.217 1.025.709-1.543-2.738-2.6-3.542-3.055-1.015-.339-4.22.38-5.298.433-.73.095-1.247.74-1.184 1.48.159.772.138 4.167.709 4.79m3.722-.697c2.622.021 2.284-4.135-.296-3.701 1.194.645 2.23 2.358.37 2.865-.698.138-1.417-.613-1.935-.994a1.864 1.864 0 0 0 1.86 1.83m.307-1.724c.677-.814-1.692-1.882-2.04-2.337-.286-.158-.635-.127-.825.117-.677.782 1.66 1.86 1.977 2.294.286.222.687.19.888-.074m14.603 11.727c-.888.084-1.343.687-1.808 1.3-.413-.264-.963-.518-1.47-.518-.275 0-.529.074-.761.264 1.617.635 1.036 3.077-.53 3.088-1.575-.01-2.156-2.453-.538-3.088a1.135 1.135 0 0 0-.762-.264c-.507 0-1.057.254-1.459.518-.476-.613-.93-1.216-1.808-1.3.486 4.472 2.527 6.714 4.568 6.714 2.04 0 4.081-2.242 4.568-6.714m-.74.962c-.635 3.553-2.327 5.15-3.828 5.15-1.512 0-3.204-1.597-3.828-5.15.19.18.37.412.592.698l.328.433.465-.285c.19-.127.381-.222.56-.296-.2.412-.264.898-.168 1.395.19 1.068 1.036 1.808 2.05 1.819 1.005-.01 1.851-.75 2.052-1.819a2.22 2.22 0 0 0-.18-1.395c.18.073.37.169.571.296l.466.285.327-.433c.212-.286.392-.519.593-.698m-8.512-9.623c.211-.983-1.343-1.3-1.523-.317-.222.984 1.332 1.3 1.523.317m5.287 2.623c.211-.984-1.333-1.3-1.523-.317-.211.983 1.332 1.3 1.523.317m-1.121 4.758c-.18.793 1.078 1.057 1.226.254.17-.793-1.078-1.047-1.226-.254m.18-25.07c-.593-.053-1.216-.17-1.787-.223-1.11.973.137 1.523.972 1.449.709.19 1.671-.761.814-1.227m-9.252 2.612a264.517 264.517 0 0 1 3.627 4.705c.17.022.508.085.508.085l-4.325-5.731s-.074.581.19.94m5.319 4.654-5.298-7.021s-.105.327-.148.475c.392.518 5.076 6.736 5.076 6.736zm-.518 2.823c-.085-.032-.17-.053-.286-.095-.148.39-.37 1.089-.021 1.332l1.723.74 2.21-1.639.603-8.893-.656.053c-.169.022-1.374 10.267-2.009 9.665.127-.677 1.597-9.665 1.597-9.665l-.656-.095c-.031.211-.074.476-.074.476l-2.442-3.215-.328.159 2.622 3.436-.169.614c-.243-.159-2.77-3.67-3.024-3.997l-.518-.032 3.405 4.441-.18.592-3.817-5.022h-.487l4.135 5.445-.222.783-4.536-6.165-.592.01 5.012 6.63-.18.614-5.54-7.243-.096.56s5.16 6.778 5.477 7.222c-.264.836-.063.91.296 1.597.201.772-.338 1.977-1.248 1.692M72.6 70.189c.614.36 1.3.762 1.925 1.11-1.533 1.872 1.226 2.686 1.068.857 1.036.444 5.096 1.692 3.468-.74-5.33.18-8.036-5.403-5.097-9.675 1.798.814 8.09-2.242 7.56.867.339.349.424.38 1.174.38 1.82-4.187-4.451-2.939-6.693-2.442-2.009.592-3.86-2.347-5.625-.74-.709.624-.254 2.02.708 2.062.846.021 1.09-1.142.339-1.512 1.65-.56.856 2.093.253 2.78-1.892-.983-2.21 2.073-.328 1.27.074.55.106 1.089-.031 1.607-2.041-.434-1.502 2.495.042 1.321.433.413.645 1.068.687 1.692-2.051.296-.412 2.93.55 1.163M51.008 27.365c-.021-.402.265-1.184.265-1.184-.402.159-1.227.486-1.628.656 0 0 .74.37 1.004.676-.349.127-.677.18-1.163-.042l.634 1.269c.138-.56.434-.888.645-.941.688 1.057-1.025 2.22-1.755 1.322-.222-.381.032-.793.476-.476-.063-.783-.74-.783-.952-.201.022-.804-.18-1.29-1.025-1.523-.222.804.052 1.28.846 1.629-.455-.053-.942.39-.328.951.01-.507.433-.56.655-.222.37.941-.73 1.3-1.628.35.2-.075.412-.043.698.02l-.867-1.088c.053.391.021.666-.053.835-.19-.211-.243-.402-.328-.825l-.655.582c.623.391 1.332 1.015 2.188 2.242 1.142-1.121 5.753-3.046 7.529-2.993-.211-1.49-.127-2.421.053-3.14l-.867.031c.222.36.306.54.328.825-.18-.074-.392-.253-.614-.57l.117 1.384c.158-.243.296-.412.497-.497-.011 1.312-1.058 1.809-1.438.878-.064-.412.285-.656.634-.296.063-.835-.603-.825-.899-.465.35-.804.212-1.333-.497-1.766-.444.75-.264 1.237.307 1.808-.55-.275-1.047.19-.56.804.105-.53.57-.413.676.01.085 1.164-1.956 1.491-2.178.254.18-.116.624-.074 1.1.233l-.402-1.354c-.201.497-.476.677-.814.825m-4.833-.995c.518.022.529-.793.011-.793-.518-.01-.529.793-.01.793m1.247-1.565c.518.011.529-.803.01-.803-.517-.011-.528.803-.01.803m-1.67 3.553c.528.011.528-.793.01-.793-.508-.021-.518.793-.01.793m.084-1.036c.529.01.529-.804.01-.804-.507-.01-.528.804-.01.804m2.294-5.498v.01l-.803.053.423 1.058.56-.667c.032.022.063.043.106.043l.084 1.406c.149 1.237 2.02.476 1.27-.508l-.9-1.068c.022-.042.032-.073.043-.105l.856.084-.412-1.047-.624.508a.304.304 0 0 0-.106-.042l-.063-1.016c-.265.096-.783.307-1.036.402l.645.793c-.011.032-.032.064-.043.096m2.316 4.187c.339-.317-.169-.825-.497-.508-.338.317.17.825.497.508m-.444-.93c.338-.318-.17-.825-.486-.508-.339.317.158.835.486.507m60.853-10.86c.18-.634-.73-1.48-1.375-1.226.085.709.825 1.322 1.375 1.227M102.81 49.75c.613-.36 1.258-.634 1.819-1.078-.138-.19-.233-.328-.37-.529-.54.518-1.787.687-1.449 1.607m3.49-1.406c.317.54.623 1.068.93 1.586 1.216 0 .19-1.005-.095-1.438-.159-.17-.497-.17-.751-.254-.032.042-.053.074-.085.106m6.027-32.504c-.465-.994-.708-1.121-1.691-1.015.401.983.994 1.353 1.691 1.015m-.645.613c.339 1.163.804 1.417 2.01 1.248-.381-.963-1.005-1.354-2.01-1.248m-2.506 13.958c-1.321-.624-2.4.158-3.711-.127.37 1.84 2.559.497 3.711.127m3.786-12.108c-.064 1.164.91 1.84 2.527 1.745-.423-1.174-1.258-1.808-2.527-1.745m4.303 4.082c.032-.053.074-.095.106-.148-.951-1.364-1.364-1.64-3.045-1.65.022 1.65 1.734 1.65 2.94 1.798m-16.887 24.849c.328-.889 2.02-3.077 1.11-3.754-.423.243-1.311.137-1.226.803v2.919c.042.01.084.022.116.032m-5.192-6.112c.38-.032.709-.053 1.036-.085.37-1.342-.401-1.49-1.321-2.22-.37 1.12-1.354 1.66-1.914 2.612.899-.064 1.427-.36 1.945-1.068.085.275.17.518.254.761m10.51 10.056c-2.252 2.76-2.273 3.161 1.164 4.356a23.823 23.823 0 0 0-.085-.761c-.666-.19-1.321-.444-1.924-.846.433-.54.835-1.036 1.258-1.554-.127-.36-.254-.72-.412-1.195m1.416 8.1c-.634-.054-1.226-.107-1.913-.16.021.339.042.593.063.868.38.095.708.18 1.057.264.106 1.999-.994 2.03-2.485 1.195-.444 2.538 3.648 2.284 3.278-2.168m8.417-34.608c.762 0 1.861.486 2.496.042.021-2.421-2.94-2.104-4.621-2.157.497.91 1.142 1.808 2.125 2.115m6.45 3.013c.698 1.671 1.83 1.27 2.56 2.369-.614-.211-1.153-.38-1.682-.56-.042 1.787 2.2 1.966 3.436 2.654-.2-2.887-1.596-3.976-4.314-4.463m.455 9.179c-.042 0-.084.01-.127.021-.37 1.618.761 3.046 1.47 4.43 1.226-2.177 1.174-4.652-.783-6.386-.602 1.163.233 2.263.53 3.363-.043.021-.085.031-.128.052-.317-.497-.645-.994-.962-1.48m.465-10.606c-.01.042-.021.084-.031.138-.508-.032-1.016-.064-1.555-.085.571 1.84 2.718.952 4.06 1.787-.771-1.48-1.332-2.918-3.13-3.204.191-.877-.042-1.702-.591-2.03.01.772-.307 1.332-1.005 1.618-.349 1.533 1.237 1.448 2.252 1.776M55.714 40.318c-1.629.096-1.396-1.945-1.872-3.098-.296.338-.54.613-.804.92.339 1.131.677 2.273 1.037 3.479.264-.19.497-.35.74-.529 1.131.804 2.168.254 2.548-1.004.339.084.645.232.888-.011-.539-1.1-1.046-2.157-1.575-3.246-.328.074-.624-.392-1.015-.022.36 1.015 1.702 3.035.053 3.51m67.503-8.965c-.592 1.12 1.1 1.586 1.121 2.654-.444-.35-.824-.656-1.258-.994-.529 2.083 1.935 2.76 2.686 4.398.994-3.034.454-4.885-2.549-6.058M68.36 78.913c.687-.645-.243-1.015-.613-1.512-6.144-5.72-8.428-13.143-7.899-21.402-.148-.074-.328-.169-.634-.317-1.026 8.755 2.347 17.585 9.146 23.231M47.91 41.006c.38.898.93 1.945 1.85 2.326-.475-1.787.73-3.33 1.29-4.949.011 3.712-2.104 5.731 2.993 7.095-1.353-2.188-.455-4.843-1.322-7.084-.814-.465-1.734-.582-2.284-1.269-.158-.328-.433-.444-.73-.508-.95-.211-1.84-.528-2.315-1.321-.708.222-1.131.19-1.766-.074-.063.793.613 1.586 1.502 1.28-.709 1.046-.318 1.977-.053 3.044.507-1.067 1.29-1.712 2.157-2.252-.666 1.142-1.861 2.284-1.322 3.712m9.992-7.37c.244 1.226-.095 2.252-.909 3.225 1.216 2.157 3.257 3.796 4.156 6.132 2.02-3.764-.138-5.033-2.908-7.095 1.776.635 3.574 1.248 4.568 2.94.211-3.236-1.227-4.843-4.357-5.34.011-.053.022-.095.032-.137 1.3-.064 2.601-.053 3.828.74-.328-1.005-1.132-2.485-2.326-2.358.433-.888.422-1.48-.011-2.01-.201.625-.592 1.005-1.237 1.026.137 1.121-.233 2.052-.836 2.877m-10.658.824c.022-.423.053-.835.085-1.29-.487-.074-.931-.158-1.428-.243.582-.433 1.29-.55 1.861-.328-.497 2.073.38 3.522 2.59 3.638.677-1.005 1.28-1.163 1.936-.444-2.919-.307-.751 2.77.73 1.734.401-.571 1.66-1.079 1.3-1.882-2.316-1.692-2.157.803-2.58-3.373-.106-.011-.212-.011-.307-.022-.211.793-.994 1.406-1.628.656-.222-.254-.413-.476-.772-.54 1.586-1.269 3.458.55 3.352-2.41 1.755 2.21 1.914-.244 3.658-.286-.084 1.755-.444 1.618-1.945 1.523.486.37 2.368 2.252 1.269 2.421-.455-1.174-1.227-2.316-2.517-2.548-1.057 1.047-.54 2.22-.38 3.436.94-.317 1.734-.92 2.717-.846.328.963-1.216 1.502-.338 2.464 1.501.243 3.14.254 2.654-1.882-.487-.296-.973-.486-1.48.042.02-.825.835-.962 1.47-.814 1.384-1.47.919-3.426-.572-4.62.391-.572.814-.974 1.533-1.122-.253.508-.75.688-.867 1.142.328.413.645.793.941 1.163.804-.348 1.015-1.607.444-2.886-.983.253-2.717 1.068-2.717 1.068-.857-.317-.486.095-.37.507-2.718.497-5.382 1.216-7.54 3.024-.38.275-.56.106-.687-.444-.253-.39-.38.286-.412.455 0 0-1.628.402-2.347 1.005.507.824 1.216 2.135 2.347 1.702m64.575 26.287c-.761.127-.93.444-.793 1.184-.846 1.83-.878 4.04-2.316 5.583 3.109-.877 2.422-2.051 3.172-4.409-.148 3.204.011 3.151 1.174 5.35-2.39 1.682-6.302.265-7.624 3.532.37.423.836 0 1.322.116-.307.381-.434.815-.93 1.142.105-.306.169-.507.243-.697-.9-.307-1.64 1.744-2.306 2.41 6.398-1.29-.771-3.172 11.833-4.642 2.23-1.046-2.105-2.685 2.262-5.456.392-1.512.635-3.066 1.45-4.43.2-.455-.117-1.09-.519-1.406-1.914 1.353-2.834-.825-6.968 1.723m-49.93 14.296c.603.106 1.258.222 1.83-.042-.889-1.523-1.777-3.024-2.697-4.59-1.597 1.967-4.367.762-6.101-.443-1.417-1.047 1.639-2.665.655-6.154 1.364 2.199-1.11 4.102 2.718 5.329-1.11-1.64-.962-3.765-1.375-5.647-.053-.327-.211-.645.053-.972.127-.455.159-1.058-.455-1.132-4.272-2.453-3.415-1.258-7.57-1.83-1.026 1.809 1.141 3.416.803 5.182-.307.857 1.005.825.994 1.67.285 1.312.148 3.152-1.353 3.66-.751.443-.149 1.395.496 1.617-1.321 2.4-.306 2.781 1.724 3.976.01-.93.022-1.734.402-2.517 2.802 1.861-1.364 2.168 4.177 4.42-.56-.93-.55-1.935-.635-2.865.529.116 1.036.243 1.554.36.603 2.569 1.988 2.79 4.442 2.569-.878-.867-1.121-2.01-1.756-2.908.73.253 1.47-.254 2.094.317m57.511-8.332c.022.042.043.084.074.127l.022-.053zm.857-.38c.127.062.243.147.296.295.084.01.2-.032.264-.137.043-.138 1.512-2.062 1.343-2.19-.169-.052-.317-.168-.36-.338-.147-.137-.348-.2-.486.011-.052.243-1.68 2.083-1.258 2.316.063 0 .127.01.2.042m17.68-14.074c-1.025.307-1.448 1.163-1.829 2.136-2.58-4.029-7.486-6.799-8.226-11.726.57-3.934 5.784-3.035 4.726 1.068 2.707-1.449 1.396-4.156-1.152-4.632 2.77.212 4.293 2.56 6.175-1.332-1.64.592-4.124.17-4.991.042 3.447-.465 5.319-.433 5.213-4.716-1.174 2.57-4.42 2.612-6.778 3.447.148-1.142-.211-1.84-1.12-2.2.93 6.25-10.924 4.21 2.103 17.702-1.596-.878-3.457-.582-5.001-1.565 1.205 3.256 3.235 2.696 5.9 3.827-2.855-.021-3.743 2.77-1.628 4.114-.55-2.157 2.41-3.648 3.89-1.956 3.385 4.345-2.801 10.383-8.3-.508.043.603-.38 1.142-.962.952l-.624 1.723c1.259.476-.666 2.897-.803 3.595-.222.466-.709.614-1.068.36l-.614 1.258c.762.698-1.279 2.675-1.512 3.289-.243.36-.666.475-.962.285l-.222.455c.042.063.074.095.085.095 1.385 1.65 2.02 2.908 1.65 4.653 1.13-.963 1.628-3.638.729-5.097 1.015 1.057 2.495 1.819 3.087 3.183.582 2.463.127 4.917-1.543 6.862-.709.72-.53 1.1-.614 1.977-.475 1.386-2.136 1.502-2.77 2.676-.444 1.036-1.163 1.882-1.48 2.97 1.882-.295 1.565-2.939 3.352-3.467-.73 1.1-1.428 2.114-1.925 3.394 1.491-.391 4.314-.793 3.838-2.897-.348-.973.593-1.618.54-2.549 1.184-.423.91-.898 1.48-1.818.265.56.275 1.025.243 1.628-.148-.296-.232-.486-.338-.708-.846 1.142-.148 2.241-.265 3.457 4.124-3.69-1.353-3.669 2.93-11.853.983-1.628-2.803-1.449-3.078-5.128-.264-1.597 1.132-2.898 1.428-4.42 1.65 2.94 7.412 2.833 6.619 6.577 1.163-.867 1.11-2.475.656-3.68 5.942-2.136 1.247-7.603 3.161-11.473m-14.02 9.422c.031-.222 1.268-2.274.94-2.454-.221.043-.486-.074-.57-.285-.307-.127-1.09 2.104-1.227 2.242.391-.244.899.158.761.613a.26.26 0 0 0 .096-.117m1.237-5.89a.28.28 0 0 0 .084.244c.222-.19.571-.106.74.116.254-.074.17-.867.222-1.057a14.543 14.543 0 0 0-.92-.888zM92.997 94.15c3.997-.793.455-5.551-4.462-3.616-.433 1.892-.825 3.669-2.41 5.086 3.161.148 6.227-.053 9.178-1.311 1.47-.889 1.47-4.071 3.055-5.784-1.808-.37-.962 5.815-5.36 5.625m-14.973-3.542c-4.906-1.946-8.47 2.802-4.473 3.605-4.388.19-3.542-5.995-5.35-5.625 1.586 1.713 1.586 4.906 3.045 5.784 2.96 1.258 6.027 1.46 9.189 1.311-1.586-1.406-1.978-3.193-2.411-5.075m26.107-48.841a.447.447 0 0 1-.053-.55c-.211-.042-.56 1.914-.634 2.02.148.148.264.275.38.412.19.053.497.159.56-.106l.445-1.723c-.201.18-.54.2-.698-.053m20.936 8.438a.532.532 0 0 0-.56.698.853.853 0 0 1-.106-.042l-1.734-1.185c-.117-.074-.148-.232-.085-.36.328-.01.677-.179.635-.58.137.168 1.998 1.173 1.85 1.469m-6.376-6.027c-.106.127-.317.402-.317.402-1.925-2.2-8.407-4.716-11.209-4.304 0 0 .032-.328.043-.497l-.022.01 1.068-.676-.91-.761c.011-.106-.581-3.796-.581-3.796l1.607-.042s-.57.666-.602 1.205c.095.063.169.148.222.264.327-.137.666-.803.666-.803l.158 2.178s-.444-.624-.772-.74a.46.46 0 0 1-.116.211c.465 1.449 2.58 1.544 2.58.296-.074-.645-.782-.539-.74.148-1.163-.92.402-2.39 1.047-.909-.085-.856-.011-1.343.655-1.755.434.55.37 1.068-.106 1.893 1.428-1.322 1.967.92.635 1.247.645-1.173-1.227-.803-.54.434.635.962 2.158.814 2.697-.233a1.144 1.144 0 0 1-.085-.2c-.528-.096-1.321.359-1.321.359l.74-2.02s.307.867.75 1.132a.804.804 0 0 1 .297-.159c.084-.529-.455-1.353-.455-1.353l2.474.951s-.972.243-1.29.688c.064.095.106.2.106.306.508.106 1.343-.317 1.343-.317l-.878 1.956s-.264-.856-.719-1.142a.709.709 0 0 1-.2.096c-.35 1.131.676 2.241 1.797 1.956 1.364-.413.286-1.956-.084-.666-.74-1.132 1.247-2.39 1.342-.487.244-.91.56-1.332 1.27-1.438.179.74-.107 1.142-.773 1.703 1.534-.645 1.597 1.48.127 1.364.508-.476.064-1.016-.444-.603-.877.92.772 2.241 2.062 1.586 0-.085.022-.17.053-.233-.317-.222-1.079-.253-1.079-.253l1.587-1.174s-.19.72-.043 1.09a.652.652 0 0 1 .35.03c.338-.338.359-1.257.359-1.257l1.184 1.47s-2.971 1.363-3.49 1.765l-.824-.084.402 1.163zm-8.723-10.712c.497.18.962.434 1.459-.052-.476-.011-.624-.339-.762-.666-.232-1.629 2.432-1.047 3.426-.931 2.496 1.512 6.757.55 5.277-3.077 1.152.719.761 2.707-.117 3.479-2.315 1.248-4.504.306-6.81 2.749-.348-1.11-1.68-1.057-2.156.18-.444.031-.56.021-.973.053-.085-.656.444-1.121.655-1.735m6.176-6.27c-.74.497-1.396 1.248-2.157.233-.17.042-.318.063-.497.105 1.12-1.734 1.025-1.438 2.654-.338m2.516-3.955c.55.603.793 1.27.793 2.02-.528-.19-.761-.761-.793-2.02m-23.02 9.802 2.792-.993 1.026 2.061-1.946 1.238zm-1.797-.486c-.36 2.125-5.15 1.206-4.684-.91.36-2.125 5.15-1.205 4.684.91m-9.527.92-2.982-2.104 2.993-2.115 2.992 2.115zm-6.852.264c-3.034.614-3.669-2.717-.624-3.277 3.035-.614 3.67 2.728.624 3.277m-6.333 1.608-1.935-1.237 1.025-2.062 2.792.994zm36.85-6.715c.243-.021.433-.042.708-.074-.465-.338-.01-.803.37-.465.92.709-.92 1.872-1.078.54m18.525 23.95-.254-.032-.687-1.861c.317-.413.497-1.079-.01-1.407-.667-.264-2.56-2.421-3.12-1.025-.233.084-1.724.169-1.84.454-.719-1.142-1.332-2.347-1.776-3.68.296-1.554 4.409-3.5 4.409-3.5s-1.163-1.68-1.628-2.632c-.212.465-.402.264-.857.476 2.295-4.06 2.781-9.411-.253-13.25-.307-.676-.17-1.554-.466-2.199-.528-.698-.888-2.062-1.818-2.2 0 1.206-.127 2.38.454 3.5.624.783-.846 1.45-1.31.825.887-.095 1.025-.274.729-.771-3.786-.846-5.89 1.808-9.496 2.23-.317-.01-.602.106-.782.392-2.22 3.003 2.77.952 3.204 2.94-.836.687-.952.232-1.734.031-1.121.042-2.21.402-.815 1.343-.845 1.343-.814 1.819-2.548 1.935.75 1.068.592 2.601.793 3.807-1.237.232-2.083.835-2.104 2.157-.56.127-1.163-.17-1.565.433-.772-.645-1.67-.761-2.601-.782-.455-.339-1.565-1.132-2.75-1.734.233-.878.466-1.703.667-2.475.349-.222 1.596-1.015 1.924-1.226l-1.004-2.02c2.23-7.666 2.95-8.1 4.081-8.258l.053-.211-4.113-1.322-.074.264c1.036.762 1.374 2.01.899 3.479-1.1-.476-1.724-1.512-1.608-2.443-.021-.01-.274-.084-.274-.084l-1.375 4.578s.2.064.222.064c.54-.783 1.48-1.216 2.58-1.036-1.28 4.05-7.01 2.791-5.985-.656.73-1.417 2.115-.508 1.449.983 3.214-1.131 1.321-5.762-1.438-3.003.92-1.86 1.438-3.32.296-5.128-1.491.952-1.872 2.675-1.586 4.98-1.808-4.155-4.98.117-2.4 2.284-.476-3.077 3.33-1.046.75 1.438-2.442 1.734-5.467-.253-5.551-3.32 1.417.127 2.495.962 2.643 2.01l.265.01.169-5.223s-.296-.022-.317-.022c-.222 1.057-1.375 1.956-2.834 1.988.106-1.618 1.026-2.876 2.22-3.077v-.296h-6.027v.296c1.195.2 2.115 1.459 2.21 3.077-1.448-.032-2.6-.93-2.823-1.988-.022 0-.317.022-.317.022l.169 5.223.264-.01c.149-1.048 1.227-1.883 2.644-2.01-.085 3.067-3.109 5.054-5.562 3.32-2.57-2.484 1.237-4.515.761-1.438 2.58-2.167-.592-6.44-2.4-2.284.275-2.305-.095-4.028-1.575-4.98-1.142 1.808-.635 3.267.275 5.128-2.75-2.76-4.642 1.883-1.428 3.003-.666-1.49.72-2.4 1.449-.983 1.025 3.447-4.706 4.705-5.985.656 1.1-.18 2.04.253 2.58 1.036.021 0 .222-.064.222-.064l-1.375-4.578s-.253.074-.275.084c.117.93-.507 1.967-1.607 2.443-.476-1.47-.137-2.718.899-3.48l-.063-.264-4.124 1.322.063.211c1.12.16 1.84.593 4.071 8.259l-1.005 2.02c.318.2 1.587 1.004 1.925 1.226.19.698.391 1.448.603 2.242.01 0 .021-.011.021-.011 0 .021-.01.031-.021.01-5.541 2.591-4.283 4.346-8.555 3.85-.38.877-.74 1.755-1.607 2.357-.159-1.353-.761-2.41-1.554-3.362-.392-.455-.93.042-1.523.095-1.152 2.517-1.956.243-3.997 1.565.085 1.174.265 2.348.91 3.426-1.523-.106-2.77-.518-3.775-1.226-4.537 5.064-9.263 9.928-13.144 15.5-2.072 2.74-7.613 1.143-6.143-2.632.666-2.75 4.642-2.157 4.388.57 1.967-2.188.698-4.356-2.295-3.87 2.75-1.194 4.41 1.058 6.895-2.04-1.904.053-3.51-.55-5.404-.116 2.39-1.438 5.679.698 7.73-3.257-1.787.19-3.394.93-5.234 1.205 11.06-10.542.412-11.06 1.766-15.628-.867.74-1.354 1.47-.963 2.453-2.474-1.036-6.143-.73-7.148-3.732-.243 4.282 1.64 3.976 4.875 4.853-1.49-.18-2.971-.19-4.367-.698.286 1.914 1.745 2.327 3.458 2.147-1.682.93-1.29 3.32.412 4.145-1.089-6.207 8.195-4.082 3.955 1.618-1.967 2.928-4.811 5.117-7.212 7.676-.444-.782-.92-1.565-1.966-1.448 1.829 2.104-.233 4.388-.72 6.566-.697 2.686 1.671 4.97 4.209 5.276-1.015 1.206-1.09 2.274-.307 3.257.762-3.944 6.482-3.056 7.021-7.328.096-.497.339-.888.9-1.12-2.58 2.918 3.615 9.083-2.21 9.802-.826.021-1.037.898-.572 1.512-2.4-.117-3.066.793-3.436 3.066 1.057-.275 2.051-.529 3.045-.793-1.047 2.75-3.426-.159-3.035 4.727a28.949 28.949 0 0 0 2.77-1.513c.868 2.74-4.356 1.555-.433 5.932.243-.814 1.29-2.495 1.83-2.865-.487 1.375-.37 2.971 1.173 3.584.074-.359.138-.687.201-1.015h.127c.222.91.254 2.179 1.131 2.707.296.117.455.275.55.582.159.507.635.645 1.09.708.58.117.729-.539 1.152-.803.116.73.973.835 1.385 1.448.328-3.553-4.399-2.263-3.31-4.61.413 1.428 1.756 1.12 2.686 1.702.37.603 1.248 1.09 1.703.265.444.328.835.624 1.226.92-.92-4.23-3.109-1.618-4.494-3.828.962.042 1.988 1.47 3.024.487.56.581.994 1.247 1.417 1.935.159-1.354-.338-2.39-1.406-3.14-1.195-.73-2.823.58-3.849-.89-1.396-1.733-1.364-4.155-.634-6.164.676-1.533 2.537-2.114 3.394-3.574-.233 1.29-.117 3.532 1.343 3.944-.36-2.39 1.343-4.536 1.692-6.851.444-.582.465-1.037.063-1.671-.73-1.184-.93-2.622-1.724-3.786-1.247-1.744-2.77-1.787-.243-3.626-1.533 2.39-.285 1.522 1.047 3.764.243-.75 1.375-1.745-.042-1.745-2.231-1.089 2.908-3.933 4.07-4.007 1.143-.096 2.75.031 3.617-1.09-.55-1.036-1.068-1.184-.148-2.252-.624-.37-1.174-.803-1.28-1.618-.592.201-1.12.392-1.734.603.56-.634 2.21-1.924 2.39-.497.042.793.835.941 1.449 1.142-.455.656-1.206 1.311-.518 2.083.475.497.772 1.438 1.512 1.565.19-.74.38-1.459.581-2.189 1.629 1.703-1.628 2.654 2.834 4.188-.17-.92-.307-1.82-.19-2.77 2.146 1.797-.93 2.928 4.028 3.52-.55-.655-.676-1.385-.888-2.114.836.127 1.502.93 2.03 1.522.519.772.889 1.195 2.052.434.053.137.074.328.169.402.518.401.317.877.307 1.417h.137c.687-.698.74-1.502.529-2.369-.487-1.639-2.485-.338-3.194-2.01.952.646 1.893 1.016 2.93.477.581.55.824.951 1.11 1.723.475-1.766-.074-3.563-1.935-3.034-.582.2-.825.158-1.407-.35.867.297 1.438-.147 1.988-.539.127.148.201.328.275.339.529.031.867.349 1.195.73.17-1.513-1.332-2.74-2.844-2.348-.381 1.85-1.935.804-3.173.56-1.913-1.131-2.918-3.278-4.61-4.673.159-2.083-1.565-3.733-3.648-3.617 1.872-.814 4.103.793 4.25 2.75.064.803.55 1.31 1.069 1.903 6.334-12.742 26.784-16.072 38.531-7.983 1.005.909 2.094 1.66 3.13 2.622.402-1.216.17-2.665 1.977-1.925l.339-.232c-.37-1.026.402-2.189 1.48-2.263v.804c-.476.074-.846.528-.761 1.025.36-.073.687.402.486.709.35.2.825.116 1.09-.159.295.011.602.042.898.074-.412.984-1.84 1.311-2.654.592.159.222-.54 2.38-.571 2.644a.68.68 0 0 1-.687.507c.127.212.232.392.349.582.518-.286 1.237-.275 1.163-.994.106-.423-.17-2.326.423-2.147.243.72-.212 1.555.328 2.263 1.691-.412.951-1.956 3.003-2.347.814-.074 2.537-.476 2.981.338-1.797-.476-4.113.022-4.515 2.062-1.86.444-3.436 1.777-5.424 1.777-1.576.084-2.01 1.987-2.073 3.288-.264 1.49-.338 3.035-1.004 4.42-.328.529-.053 1.142.127 1.628.603.328 1.036 2.422 1.12 3.172 0 1.364 2.348 1.83 3.3 2.676.264-1.713-2.982-1.227-2.527-3.627.581 1.586 1.84 1.914 3.225 2.696-.434-1.607-.56-4.272-2.802-3.944-.868-1.195.39-1.269-.011-2.696.645.2.951.423 1.12.824-.2-.063-.38-.116-.655-.21.074 1.014.962 1.257 1.639 1.955-.116-1.66-.265-2.717-1.808-3.52-.888-.804.127-2.655.074-3.765-.032-.328 2.062-1.375 2.39-1.28 1.554.201 3.182-.042 4.694.35 1.502.465.212-2.792 2.633-1.08-1.755-.517-.687 1.407-1.956 1.502-.878.011-1.639-.074-2.559-.106 3.183 7.096 10.267 5.023 12.202 11.357 1.64-1.438.529-1.417.074-2.919 3.67 2.454-3.426 5.287-.761 9.58-.17-.475 1.501-2.485 1.692-2.897.306-.455.814-.486 1.152-.159l.529-1.1c-.983-.538.804-2.865.93-3.52.19-.402.614-.592.942-.423l.497-1.375c-.942-.254-.233-2.527-.307-3.161-1.322-1.185-2.39-2.676-3.415-4.05l.634-.106a.794.794 0 0 0 .296.825c.455.18 2.189 1.85 2.728 1.448l.275.74c-.444.117-.518.73-.518 1.142.232.201.476.381.708.593.032-.149.011-.825.138-.93a.537.537 0 0 0 .803.062c.212.106-.052 1.576-.021 1.756.253.275.497.56.719.867-.095-.677.74-3.246-.412-3.373M386.095 205.969H393v5.023h-6.905v21.507c0 2.675.74 3.077 4.293 3.077H393v5.022h-4.356c-5.9 0-8.237-1.205-8.237-7.57v-22.036h-5.9v-5.023h5.9v-10.394h5.688zm-31.235 0h5.36v7.296h.138c2.75-5.625 6.567-8.3 12.731-8.11v6.037c-9.178 0-12.53 5.16-12.53 14v15.406h-5.699zm-21.846 30.41c5.964 0 10.786-4.684 10.786-13.058 0-8.375-4.822-13.133-10.786-13.133-5.963 0-10.785 4.758-10.785 13.133 0 8.374 4.822 13.058 10.785 13.058m0-31.214c10.987 0 16.823 7.962 16.823 18.156 0 10.108-5.836 18.081-16.823 18.081-10.986 0-16.812-7.973-16.812-18.081 0-10.194 5.826-18.156 16.812-18.156m-36.998 5.023c-7.708 0-10.584 6.63-10.584 13.059 0 6.767 3.077 13.132 10.912 13.132 7.772 0 10.394-6.63 10.394-13.397 0-6.503-3.352-12.794-10.722-12.794m-16.083-4.22h5.7v4.685h.127c1.882-3.817 6.238-5.498 11.06-5.498 10.648 0 15.945 8.448 15.945 18.23 0 9.843-5.223 18.017-15.818 18.017-3.479 0-8.703-1.332-11.187-5.424h-.127v17.89h-5.7zm-28.623 23.718c.2 5.086 4.684 6.693 9.315 6.693 3.543 0 8.375-.803 8.375-5.149 0-8.914-22.65-2.887-22.65-16.22 0-6.969 6.831-9.845 12.933-9.845 7.771 0 13.661 2.411 14.2 10.85h-5.7c-.327-4.42-4.345-5.827-8.035-5.827-3.416 0-7.37.941-7.37 4.42 0 4.018 6.027 4.822 11.324 6.027 5.69 1.28 11.325 3.214 11.325 9.855 0 8.3-7.708 10.912-14.74 10.912-7.772 0-14.338-3.14-14.677-11.716zM212.09 205.97h5.361v5.488h.127c2.411-4.283 6.228-6.302 11.261-6.302 9.104 0 11.928 5.234 11.928 12.667v22.776h-5.7v-23.442c0-4.293-2.675-6.968-7.031-6.968-6.905 0-10.257 4.62-10.257 10.849v19.561h-5.689zm-13.196 16.749c-4.43 3.278-17.288.063-17.288 8.575 0 3.744 3.214 5.086 6.693 5.086 7.507 0 10.595-4.62 10.595-7.835zm9.242 17.754c-1.005.602-2.411.93-4.082.93-2.95 0-4.832-1.607-4.832-5.35-3.151 3.743-7.37 5.35-12.192 5.35-6.302 0-11.451-2.739-11.451-9.707 0-7.846 5.826-9.58 11.715-10.658 6.239-1.27 11.663-.73 11.663-5.086 0-5.033-4.155-5.763-7.708-5.763-4.822 0-8.374 1.47-8.639 6.566h-5.7c.34-8.575 6.906-11.589 14.677-11.589 6.228 0 12.996 1.407 12.996 9.506V232.5c0 2.675 0 3.88 1.808 3.88.54 0 1.142-.137 1.745-.327zm-51.813-34.503h5.361v7.296h.138c2.75-5.625 6.566-8.3 12.73-8.11v6.037c-9.177 0-12.53 5.16-12.53 14v15.406h-5.698zm-19.35-7.846H121.03v-5.36h38.256v5.36H143.34v42.475h-6.366zm-51.59 7.846h5.361v7.296h.138c2.749-5.625 6.566-8.3 12.73-8.11v6.037c-9.177 0-12.53 5.16-12.53 14v15.406h-5.699zm-21.845 30.41c5.963 0 10.785-4.684 10.785-13.058 0-8.375-4.822-13.133-10.785-13.133-5.964 0-10.786 4.758-10.786 13.133 0 8.374 4.822 13.058 10.786 13.058m0-31.214c10.986 0 16.823 7.962 16.823 18.156 0 10.108-5.837 18.081-16.823 18.081-10.987 0-16.813-7.973-16.813-18.081 0-10.194 5.826-18.156 16.813-18.156m-30.22 5.827h-5.827v-5.023h5.826v-5.16c0-5.625 3.352-8.576 9.58-8.576 1.079 0 2.612.201 3.69.53v4.958c-1.004-.327-2.21-.465-3.214-.465-2.75 0-4.356.867-4.356 3.891v4.822h6.693v5.023h-6.693v29.617h-5.7zm326.616-77.095h6.895v5.023h-6.895v21.507c0 2.675.74 3.077 4.283 3.077h2.612v5.023h-4.346c-5.9 0-8.248-1.206-8.248-7.571V138.92h-5.89v-5.023h5.89v-10.394h5.7zm-43.3 0h5.361v5.488h.127c2.422-4.282 6.239-6.291 11.261-6.291 9.115 0 11.928 5.223 11.928 12.657v22.776h-5.7v-23.443c0-4.293-2.675-6.968-7.031-6.968-6.905 0-10.257 4.621-10.257 10.85v19.56h-5.689zm-10.711 14c-.338-5.424-4.293-9.78-9.982-9.78-5.9 0-9.58 4.42-9.918 9.78zm5.488 9.643c-1.533 7.709-6.968 11.79-14.804 11.79-11.05 0-16.283-7.697-16.611-18.218 0-10.447 6.83-18.018 16.273-18.018 12.266 0 16.02 11.451 15.681 19.826h-25.927c-.201 6.027 3.214 11.388 10.785 11.388 4.759 0 7.973-2.21 8.978-6.768zm-85.067-23.643h5.36v5.086h.138c2.612-3.954 6.292-5.89 11.187-5.89 4.283 0 8.1 1.608 9.506 5.89 2.348-3.753 6.366-5.89 10.86-5.89 6.905 0 11.525 2.877 11.525 10.046v25.388h-5.699v-22.713c0-4.282-1.142-7.698-6.704-7.698-5.562 0-9.04 3.479-9.04 8.84v21.57h-5.69v-22.712c0-4.483-1.406-7.698-6.502-7.698-6.704 0-9.242 6.165-9.242 8.84v21.57h-5.7zm-11.145 0h6.905v5.023H215.2v21.507c0 2.675.74 3.077 4.293 3.077h2.612v5.023h-4.357c-5.89 0-8.237-1.206-8.237-7.571V138.92h-5.89v-5.023h5.89v-10.394h5.689zm-31.225 0h5.361v7.296h.127c2.75-5.625 6.567-8.3 12.731-8.1v6.028c-9.178 0-12.53 5.16-12.53 14v15.406h-5.689zm-13.111 16.75c-4.42 3.277-17.278.063-17.278 8.575 0 3.743 3.214 5.086 6.693 5.086 7.508 0 10.585-4.621 10.585-7.835zm9.252 17.753c-1.005.603-2.411.93-4.092.93-2.95 0-4.822-1.607-4.822-5.35-3.151 3.743-7.37 5.35-12.192 5.35-6.302 0-11.462-2.738-11.462-9.706 0-7.846 5.837-9.58 11.727-10.659 6.238-1.269 11.663-.73 11.663-5.086 0-5.033-4.156-5.763-7.709-5.763-4.821 0-8.374 1.47-8.639 6.567h-5.699c.338-8.576 6.905-11.59 14.677-11.59 6.228 0 12.995 1.407 12.995 9.507v17.827c0 2.675 0 3.88 1.808 3.88.54 0 1.142-.137 1.745-.327zm-52.426-30.284c-7.708 0-10.584 6.63-10.584 13.059 0 6.767 3.077 13.133 10.923 13.133 7.772 0 10.383-6.63 10.383-13.397 0-6.503-3.352-12.795-10.722-12.795m-16.083-4.219h5.7v4.684h.137c1.872-3.817 6.228-5.487 11.05-5.487 10.648 0 15.945 8.438 15.945 18.218 0 9.845-5.223 18.018-15.818 18.018-3.479 0-8.702-1.332-11.177-5.424h-.137v17.891h-5.7zm-10.806 14c-.328-5.424-4.282-9.78-9.982-9.78-5.89 0-9.58 4.42-9.908 9.78zm5.498 9.643c-1.543 7.709-6.968 11.79-14.803 11.79-11.06 0-16.284-7.697-16.622-18.218 0-10.447 6.841-18.018 16.284-18.018 12.255 0 16.008 11.451 15.68 19.826H80.912c-.2 6.027 3.215 11.388 10.786 11.388 4.747 0 7.973-2.21 8.977-6.768zm-68.022 5.626h10.585c4.356 0 16.083-1.195 16.083-18.822 0-11.388-4.22-18.293-15.946-18.293H38.277zM31.912 120.7h16.41c14.74 0 22.978 7.433 22.978 22.776 0 16.01-7.032 25.05-22.977 25.05H31.912zm0 0"/>
</svg>
