<svg xmlns="http://www.w3.org/2000/svg" width="350" height="280">
  <path d="M342.892 254.782c-.386-6.284-4.967-11.331-11.556-11.331-6.831 0-11.106 5.127-11.492 11.331zm6.365 11.17c-1.784 8.937-8.069 13.662-17.15 13.662-12.81 0-18.869-8.92-19.255-21.103 0-12.103 7.924-20.878 18.87-20.878 14.192 0 18.547 13.276 18.145 22.967h-30.023c-.225 6.992 3.729 13.196 12.488 13.196 5.513 0 9.242-2.556 10.4-7.843zm-47.093-14.497c-.996-5.047-4.42-8.004-9.933-8.004-9.547 0-12.488 7.618-12.488 15.687 0 7.441 3.327 14.658 11.717 14.658 6.445 0 10.158-3.649 11.01-9.772h6.766c-1.479 9.852-7.538 15.59-17.696 15.59-12.263 0-18.789-8.454-18.789-20.476 0-12.039 6.22-21.505 18.934-21.505 9.161 0 16.297 4.275 17.31 13.822zm-42.206-12.89h6.59v40.117h-6.59zm6.59-7.217h-6.59v-8.068h6.59zm-19.818 7.217h7.988v5.818h-7.988v24.913c0 3.102.852 3.568 4.966 3.568h3.022v5.818h-5.03c-6.832 0-9.548-1.398-9.548-8.76v-25.539h-6.83v-5.818h6.83v-12.022h6.59zm-42.223 27.468c.241 5.899 5.433 7.763 10.785 7.763 4.114 0 9.708-.932 9.708-5.979 0-10.319-26.23-3.327-26.23-18.773 0-8.068 7.907-11.411 14.979-11.411 9 0 15.831 2.796 16.442 12.568h-6.59c-.385-5.11-5.046-6.75-9.322-6.75-3.954 0-8.534 1.093-8.534 5.127 0 4.661 6.991 5.593 13.115 6.992 6.606 1.462 13.115 3.712 13.115 11.395 0 9.628-8.92 12.65-17.069 12.65-9 0-16.603-3.65-16.989-13.582zm-12.344 12.649h-6.204v-6.365h-.16c-2.797 4.967-7.217 7.297-13.035 7.297-10.56 0-13.823-6.043-13.823-14.658v-26.391h6.606v27.163c0 4.966 3.102 8.068 8.149 8.068 7.988 0 11.861-5.352 11.861-12.569v-22.662h6.606zm-42.013-13.806c0 7.457-3.954 15.124-16.378 15.124-10.319 0-16.137-5.658-16.137-16.137v-3.407h7.361v2.33c0 6.43 1.72 11.01 8.937 11.01 6.75 0 8.84-3.874 8.84-10.013V223.28h7.377zm-69.53-20.493h-6.75v-5.818h6.75v-5.963c0-6.525 3.873-9.933 11.09-9.933 1.254 0 3.038.225 4.275.61v5.739c-1.157-.386-2.555-.53-3.729-.53-3.182 0-5.046.996-5.046 4.5v5.577h7.763v5.818H87.21v34.299h-6.59zm-27.436 29.413c6.895 0 12.488-5.433 12.488-15.124 0-9.708-5.593-15.221-12.488-15.221-6.911 0-12.504 5.513-12.504 15.22 0 9.692 5.593 15.125 12.504 15.125m0-36.163c12.713 0 19.48 9.241 19.48 21.039 0 11.717-6.767 20.942-19.48 20.942-12.73 0-19.48-9.225-19.48-20.942 0-11.798 6.75-21.04 19.48-21.04m221.207-37.079c-3.102 7.763-5.738 10.72-11.637 10.72-1.559 0-3.102-.16-4.58-.706v-6.044c1.237.386 2.555.932 3.873.932 2.716 0 4.195-1.253 5.449-3.648l2.716-6.83-15.912-39.893h7.442l11.716 32.82h.161l11.251-32.82h6.975zm-42.818-45.469h6.22v8.47h.145c3.183-6.525 7.619-9.627 14.755-9.402v6.991c-10.64 0-14.514 5.963-14.514 16.218v17.84h-6.605zm-12.793 0h8.004v5.818h-8.004v24.913c0 3.102.851 3.568 4.966 3.568h3.038v5.818h-5.047c-6.83 0-9.547-1.398-9.547-8.76v-25.539h-6.831v-5.818h6.83v-12.022h6.59zm-42.223 27.468c.241 5.899 5.433 7.763 10.785 7.763 4.114 0 9.708-.932 9.708-5.979 0-10.318-26.23-3.327-26.23-18.773 0-8.068 7.907-11.411 14.979-11.411 9 0 15.831 2.797 16.458 12.569h-6.606c-.385-5.111-5.047-6.75-9.306-6.75-3.97 0-8.534 1.092-8.534 5.126 0 4.661 6.975 5.594 13.115 6.992 6.59 1.462 13.099 3.713 13.099 11.395 0 9.628-8.92 12.65-17.069 12.65-9 0-16.603-3.65-16.989-13.582zm-18.966-27.468h6.606v40.133h-6.606zm6.606-7.216h-6.606v-8.069h6.606zm-47.96 7.216h6.204v6.365h.16c2.797-4.967 7.217-7.297 13.035-7.297 10.56 0 13.807 6.06 13.807 14.674v26.375h-6.59V168.04c0-4.967-3.102-8.069-8.149-8.069-7.988 0-11.877 5.352-11.877 12.569V195.2h-6.59zm-14.675 0h6.606v40.133h-6.606zm6.606-7.216h-6.606v-8.069h6.606zm-71.056-8.069h10.093l17.455 46.562L82.195 139.8h10.094v55.402h-6.992v-46.096h-.145l-17.31 46.096h-6.284l-17.31-46.096h-.145v46.096H37.11Zm104.182-38.381s-.595 3.407-.563 3.696l-1.028-.192c-.017.032.643-2.974.787-3.633-.353-.08-.787-.033-1.19.112l.403-.867 2.78.498.193.948c-.225-.225-.98-.482-1.382-.562m-2.427.193c-.096.787-.466 2.378-.321 3.134l-1.029-.145c.45-1.173.756-3.118.691-4.372l1.029.161c-.177.337-.29.755-.37 1.221m-2.732 2.604c-2.636.482-2.62-3.954-.514-4.564 2.636-.563 2.652 3.953.514 4.564m-2.266-3.504c-.129.499-.498.836-1.11 1.03.258.867.419 1.156.869 2.105v.016l-.691-.096c-.145-.096-1.029-1.318-1.286-1.977-.145.546-.305 1.237-.241 1.736l-1.174-.193c.21-.322 1.142-3.954 1.093-4.324 1.029.129 2.861.306 2.54 1.704m-5.095 2.025c-.61.225-1.495-.016-2.138-.145l.868-4.42c2.861-.193 4.05 3.52 1.27 4.565m-4.067-.37c-.32-.064-2.04-3.584-2.04-3.584s-.435 2.733-.531 2.925l-.788-.112.884-4.291.884.112c0 .112 1.366 3.022 1.366 3.022s.467-2.363.499-2.572l.675.193zm-3.6-2.78c-.948 3.182-4.597 1.446-3.52-1.382.933-3.07 4.597-1.447 3.52 1.382m-3.825-3.408c-.16.145-.707 4.003-.675 4.372l-1.045-.193c.193-.337.434-3.037.434-3.037l-1.768 2.78-1.06-3.134s-.419 2.25-.435 2.973l-1.028-.144c.337-.515.964-4.5.964-4.5l1.06.208c.034.21.837 2.91.837 2.91s1.398-2.363 1.478-2.492l1.238.241zm25.62 2.733c-1.302 0-2.524-.033-3.118-.08-6.815-.66-13.566-2.604-20.364-3.681-1.961-.321-3.552-.61-4.95-.61-2.878 0-4.839 1.253-7.17 6.203-.996 1.88 2.331 3.68 3.055 3.761-2.717-2.33-1.768-3.021.385-3.021 2.974 0 8.23 1.318 9.258 1.446 6.236.997 12.52 2.78 18.853 3.456.225.016.434.033.643.033 4.645 0 4.42-5.08 7.618-7.603-.562.048-2.443.097-4.21.097m-23.13-1.737c-1.607-.45-2.233 2.909-.883 3.471 1.655.434 2.25-2.893.884-3.471m12.424 2.459-.466 1.704c1.318.24 1.88-1.495.466-1.704m4.05.595c-1.543-.386-2.041 2.844-.755 3.359 1.575.385 2.057-2.83.755-3.36m-7.94-1.366c-.209.852-.562 2.476-.675 3.36 2.041.433 2.668-2.958.675-3.36m-49.744-2.507.771 3.922-.9.16-.804-3.905c-.546.096-.867.096-1.607.418l-.033-.868 3.89-.514.273.755c-.353-.128-1.591.033-1.591.033m-2.845 4.597-2.7.627c.048-.418-.852-4.195-1.093-4.549l2.845-.643-.225.948c-.386-.096-.852-.096-1.383.017l.338 1.366 1.559-.37.273.676c-.321-.048-1.27.193-1.704.273l.354 1.43c.771-.177 1.414-.434 1.912-.787l.017.016zm-7.843 1.398c-1.961.048-2.25-2.764-2.717-4.163l.949-.177c.466 1.222.337 4.05 2.362 3.68 1.463-.658.273-3.005.129-4.114l.948-.144c.353 1.88 1.205 5.11-1.672 4.918m-2.764.434-2.716.594c.064-.418-.82-4.195-1.045-4.548l2.86-.627-.24.948c-.386-.112-.852-.112-1.383 0l.322 1.366 1.575-.337.257.675c-.321-.064-1.27.177-1.704.257l.338 1.43c.771-.16 1.414-.433 1.912-.77h.017zm-5.08 1.093c.065-1.334-.369-3.44-.98-4.63l1.318-.289c-.064 1.334.386 3.44.98 4.645zm-1.333-.804c-.563 1.334-2.234 1.623-3.552 1.864.064-.417-.74-4.275-.98-4.628 2.266-.98 5.512-.033 4.532 2.764m21.746-8.583c-10.318.017-20.621 4.436-30.956 4.436-1.237 0-2.475-.064-3.712-.209 3.198 2.524 2.973 7.603 7.634 7.603.193 0 .418-.017.627-.033 6.332-.675 12.617-2.46 18.853-3.456 1.077-.16 6.22-1.414 9.242-1.414 1.093 0 1.896.16 2.137.594.338.595-1.72 2.33-1.735 2.395 0 .017 0 .033.032.033.193 0 1.334-.659 2.186-1.221 3.36-2.427-3.696-8.728-4.307-8.728m-23.45 6.348c-.418-.257-.932-.337-1.543-.24.129.915.466 2.635.74 3.535 1.72-.241 2.234-2.395.803-3.295m40.728-7.666c1.286-1.158 2.186-1.56 3.841-1.945-.45 1.028-.9 2.009-1.366 3.038-.835-.37-1.64-.724-2.475-1.093m-.337-24.913h18.242c1.495 13.935-6.686 18.612-18.242 23.466zm26.953-7.474c-.417-.9-1.398-5.962-2.812-4.853 6.46 12.038 2.153 27.885-9.05 35.52-3.278 1.993-7.36 5.288-11.25 3.086 2.507-9.772 14.53-5.642 17.15-24.286-.322-.16-.45-.257-.74-.321a31.488 31.488 0 0 1-2.009 7.522c1.045-2.78.386-11.46.579-11.942-.113-.145-.225-.193-.579-.627.064 1.045 0 1.43 0 2.813H97.384v-19.03h17.905v10.736c0 .048.08.563.112.756.257-.402.29-.386.45-.515v-11.54H78.289l-.033 9.724h.547v-9.161h18.033v19.03h-17.39c-.048.048.016-.29-.048-.241 0-.065-.113.289-.113.24h-.498c0-.883.017-1.43.017-1.462l-.547-.016c-.418 1.43.788 13.372 2.733 15.461-3.922-3.793-5.144-10.56-4.42-15.638 0 0-.37-.273-.756-.643-1.237 7.168 1.479 14.224 6.493 19.351.434.466.917-.033 1.447-.16-.096-.129-.337-.306-.498-.531.193.209.37.386.498.53l-.273-.771c-3.938-3.022-4.597-11.62-4.677-15.558h18.033s-.016 23.867-.033 23.916c-3.841-.193-6.429-4.34-10.126-4.388 5.32 3.15 15.044 10.736 21.184 7.41.048.063.033.047.08.112-.643.803-2.925 2.33-3.921 1.944-1.688-1.012-4.26.836-3.07 2.7.144.21.24.403.064.692-6.654-.627-12.617-4.581-18.21-7.988-.065.064-.048.048-.097.112 2.138 2.893 9.805 6.493 9.805 6.493l-.017 4.308s.498.337.82.546v-4.66c2.009.69 6.091 1.96 6.091 1.96v2.91l.788-.5-.048-2.169 1.093-.305a1.41 1.41 0 0 0 1.028-1.543c-.305-.161-.546-.498-.434-.948.161-.852 1.174-.868 1.592-.354.835.37 1.655-.627 2.475-.868 1.157-.707 2.587-1.318 3.118-2.652.096-.337.273-.53.562-.69 2.33-1.335 4.597-2.798 6.494-4.71 8.132-6.863 10.977-18.693 8.261-28.802m-17.1 12.007c-.08-.08-.29.016-.321.064.016.434-.45.305-.595.61.096.177.225.322.418.306.257-.017.241.29.466.305 1.06-.482 2.33-.37 3.247-1.205-.354-.29-.434-.675-.499-1.093-.626.033-1.221-.048-1.751.24-.065.29.144.435.273.676-.434.193-.82.29-1.238.096m-1.205-13.854c-.804-.048-1.415-.112-1.206.852.048.225.145.916.273 1.077.065.08.048.193-.033.24-.305.194-1.542-.304-1.398-.722 0-.354-.337-.434-.45-.177-.048.096-.145.096-.257-.033-.225-.338-.546.112-.418.353.048.097-.016.21-.128.225-.338.129-.322.595.16.611 1.013.466 1.913.964 3.103.788l-.033.016c1.302-.112.627-.353.578-1.254-.225-.964 1.43-1.607-.193-1.977m2.429-1.831.45.9s.932.434 1.06.546c.53.386.434 1.447-.032 1.334-.788-.321-1.254-1.414-1.785-2.09-.144-.111-.514-1.22-.755-.947-3.214.723.579 1.543-.016 2.732-.113.16-.467.996-.322 1.125.273.337.884.579 1.19.997.53.514.064 1.092-.579.61-.37-.273-.804.129-.434.499.016.08-.225.176-.273.209-.386.514.257.498.578.24.193-.096 0 .45.322.354.578-.128 1.478-.418 1.655-1.334.354-.836-.482-.707-.69-1.43-.21-.306-.226-1.415.224-1.013.434.547.997.852 1.527.37.466-.45.033-1.543-.209-2.042-.466-.964-.996-1.896-.964-3.053.643-.756 1.398.61 1.864-1.527-1.527.096-3.005 1.109-2.266 2.812.466.965.37.9-.547.708m-3.277.659c.177-.177.723-.707.771-.836.064-.112.08-.128.466-.16 1.045-.146 1.575-.58 1.88-1.705.146-.337-.047-1.06-.256-1.221-.097-.064-.129-.177-.08-.21.209-.032.61-.192.675-.417-.113-.225-.386-.064-.74-.177-.29-.128-.996-.353-1.302-.193-.209.257-1.43.29-1.205.643.033.145.128.45.128.45l.563.064v.402s-.386.096-.53.129c-.322.482.803.514 1.092.144.21-.24.515-.273.499-.016-.145.321-.692.498-.997.643-.482.08-.595 1.012-.964 1.318-1.029.177-1.399.16-2.411-.66-.37-.433-.66-.111-.386.226-.177.064-1.125-.466-.707.434l.08.08c-.466.675.225.45.611.66.836.32 1.736.578 2.813.401m-2.893-4.146c.305.193.546 1.093.723 1.222.353.466 1.093 1.703 1.8 1.446v-.033c.21-.08.418-.69.434-.787-.016-.017-.128-.129-.273-.242-.66-.578-1.077-1.157-1.093-1.703-.017-.161.385-.402.353-.563-.016-.627-.514.064-.723-.033-.112-.177-.482-.675-.723-.434-.145.065.048.434-.08.515-.048.08-.08.08-.241.08-.547 0-.611.337-.177.53m-20.46 10.176c-.08-.08-.161-.177-.226-.273-.016.257.113.546.065.803-.033.21-.08.499-.145.692.321.32.514.353.868.225-.033-.499-.161-1.093-.563-1.447m7.94 1.27c-.064.321.225.466.29.707-.386.257-.788.257-1.174.321-.225-.209-.305-.594-.675-.482-.209.048-.08.273-.24.354-.403-.033-.403-.033-.467.385.112.064.257.145.37.225-.306 1.447 3.648-.064 4.227-.498-.193-.322-.434-.547-.515-.916-.16-.627-1.334-.113-1.816-.097m-6.83-2.474c-.627 1.157-.435 2.201.305 3.166 1.398.048 1.977-1.865 1.752-3.022.144-.096.273-.193.418-.29a3.566 3.566 0 0 0-.113-.433c-.257 0-.482-.017-.707-.017-.498-.658-.804-.675-1.414-.08-.402-.16-.402-.16-.692.21.113.208.242.369.45.465m11.46 1.704c-.418.21-.964.402-1.286-.096.708-.29 1.592-.225 2.074-.884.37-.45.337-1.334-.354-1.56-1.8-.497-3.696.403-5.513.563-3.407.917-.98-.723-3.68-.723.964 2.78 3.873.997 5.898.788-.144.337-.482.45-.61.755.707-.145 1.639.129 2.17-.434.289-.755 2.089-.852 1.655.193-1.688 1.656-7.024.096-9.403 1.173-.353 1.077-.98 1.8-2.025 2.09-.852-.514-1.221.08-2.073-.161-.08-.08-.16-.177-.257-.257-.033-.017-.048-.017-.064-.048l-.097-.048c0 .016.017.016.017.048.016.482-.113.964-.306 1.43 1.11.434 2.315-.096 3.408-.402.434-.128.691-.578 1.173-.562 1.157.08 1.816-.884 2.797-1.174 1.221-.225 2.459-.418 3.713-.402 1.43 1.961 1.703.306 2.973.965-.033.193-.064.37-.112.578.128.048.24.08.337.113-.112.482.595.771.691.16.017-.08-.016-.176.096-.192.756-.418-.417-2.443-1.221-1.913m-12.152-4.95c-.048-.498-.177-1.093-.578-1.447-.45-.466-.595-1.109-.129-1.59-.225-.226-.53-.049-.755-.354-.29-.322-.466.048-.53.402-.804.112-.338.37-.161.803.273.74 1.221 2.524 2.153 2.186m7.378-.177c-.065.321.225.466.289.707-.386.257-.788.273-1.19.322-.208-.21-.289-.595-.658-.483-.21.049-.097.274-.242.354-.417-.033-.417-.033-.466.385.113.065.241.145.37.225-.305 1.447 3.648-.064 4.227-.498-.193-.321-.434-.546-.514-.916-.161-.627-1.334-.112-1.817-.096m-6.83-2.475c-.627 1.157-.45 2.186.305 3.166 1.398.048 1.96-1.864 1.736-3.021.145-.113.29-.21.434-.306a4.058 4.058 0 0 1-.112-.418c-.258-.016-.499-.016-.708-.033-.514-.642-.82-.659-1.414-.064-.418-.16-.418-.16-.691.193.096.225.225.37.45.482m11.46 1.705c-.418.193-.965.385-1.286-.097.723-.289 1.607-.225 2.09-.9.353-.434.337-1.318-.37-1.559-1.8-.498-3.697.418-5.513.579-3.424.916-.98-.74-3.697-.723.98 2.764 3.89.996 5.915.787-.145.321-.482.45-.611.74.707-.129 1.656.128 2.186-.418.273-.756 2.073-.852 1.655.193-1.703 1.655-7.055.096-9.418 1.173-.354 1.077-.997 1.8-2.025 2.09-.724-.45-1.11-.081-1.736-.097.033.193.096.385.145.595.048.193.08.402.08.61.723-.08 1.446-.353 2.121-.546.45-.128.692-.579 1.19-.563 1.141.08 1.8-.884 2.796-1.173 1.222-.225 2.46-.418 3.713-.402 1.43 1.961 1.704.305 2.99.964-.048.193-.08.37-.113.58.129.047.225.08.338.111-.129.483.594.772.69.161.017-.08-.032-.177.081-.193.772-.418-.402-2.443-1.221-1.912m-11.814-5.353c-.048-.498-.177-1.093-.562-1.446-.45-.45-.595-1.093-.145-1.575-.225-.21-.53-.033-.74-.354-.289-.321-.466.065-.53.402-.804.113-.337.37-.16.804.272.74 1.205 2.491 2.137 2.17m7.313-.177c-.064.32.241.466.29.707-.37.24-.772.257-1.174.305-.209-.209-.29-.579-.659-.482-.209.064-.096.273-.241.37-.402-.049-.402-.049-.466.369.128.064.257.145.37.225-.306 1.43 3.616-.064 4.194-.482-.193-.322-.434-.547-.498-.916-.177-.627-1.334-.113-1.816-.097m-6.782-2.458c-.627 1.14-.434 2.17.305 3.134 1.398.048 1.96-1.849 1.736-2.99.144-.112.273-.193.418-.305-.033-.145-.08-.273-.113-.402-.257-.017-.482-.033-.69-.033-.515-.643-.82-.659-1.415-.08-.402-.161-.402-.161-.691.209.112.209.24.353.45.466m-2.926 4.195c.177.017.354-.193.53-.016l-.047.29c1.109.481 2.33-.065 3.44-.37.45-.129.69-.579 1.172-.563 1.142.08 1.8-.884 2.781-1.157 1.222-.225 2.443-.418 3.68-.402 1.431 1.945 1.688.29 2.974.964a5.83 5.83 0 0 0-.112.563c.128.048.225.08.321.112-.128.482.595.772.691.161.017-.08-.016-.177.08-.177.772-.418-.402-2.427-1.205-1.896-.418.193-.948.37-1.27-.113.707-.289 1.575-.209 2.057-.884.37-.434.338-1.318-.353-1.543-1.784-.498-3.665.402-5.48.563-3.392.916-.965-.723-3.65-.723.95 2.764 3.842.996 5.851.787-.145.322-.466.45-.61.74.707-.145 1.639.128 2.17-.418.288-.756 2.073-.836 1.655.177-1.704 1.655-6.992.112-9.354 1.173-.354 1.077-.98 1.784-2.01 2.09-.835-.531-1.221.063-2.057-.162-.241-.273-.482-.562-.836-.273v.386c-.402-.113-.851.434-.418.69m18.162 21.989c.466.707.595 1.832 1.399 2.25.353 0 .916.337 1.125-.096-.225-.852-1.27-1.334-1.125-2.315.048-.225-.033-.45-.225-.643-.402.113-1.254-.803-.949.29-.257.096-.402.273-.225.514m2.443-3.745c-.048-1.093-1.318-1.8-.932-2.91.096-.192.064-.433-.145-.61-.37.096-.37.096-.659-.08-.466-.225-.546.305-.498.643-.096.032-.177.08-.305.128.321.948 1.318 3.31 2.54 2.829m.016 13.099c-.418-.804-1.061-1.527-1.35-2.363.353-.498.193-1.157-.483-.74-.16-.336-.417-.401-.739-.32-.08.225-.128.434.096.61.017 0 0 .065 0 .097-.08.016-.145.048-.225.064-.16.434.273.691.418 1.045.482.739 1.173 2.555 2.282 1.607m4.662-6.702c-.257 0-.322.353-.129.514.177.193.354-.033.547.033.016.112.016.209.033.305 1.093.064 2.748-.916 3.343-1.8-.241-.37-.466-.707-.691-1.06-.595.192-1.27.176-1.624.706.21.226.386.434.595.66-.402.209-.852.594-1.302.225-.177-.161-.675-.08-.546.24.016.049-.017.113-.017.162-.08.016-.145.016-.209.016m1.655 4.435c-.595.16-1.19.209-1.575.82.16.208.305.401.45.61-.29.74-1.029.61-1.72.643.064.241.097.37.145.53-.29.145-.402.418-.353.772.08.033.177.064.273.096.193-.24.546-.482.627-.033 1.253-.418 2.378-1.173 2.973-2.346-.353-.29-.659-.611-.82-1.093m4.661-4.982c-2.057-.69-5.272 3.777-6.638 2.46-.321-.724-1.334-.644-1.977-.45.772.562 1.19 1.783 2.347 1.382 1.318-.258 2.363-1.318 3.504-1.817.016.386-.37.563-.53.916.787-.24 1.478-.466 2.057-.964-.097-2.154 2.99-.643.032.675.53.017.9.257 1.254-.177.675-.61.707-1.478-.048-2.025m-8.198-3.375c-.209-.112-.466-.112-.707-.096-.386-1.013-1.077-.627-1.623-.033-.836-.322-.708.418-.274.82-.417 1.028-.128 2.539.949 2.973 1.14-.482 1.462-1.864 1.398-2.974.353-.064.643-.466.257-.69m-2.957 9.563c1.077 2.572 2.7-.69 2.298-2.09.74-.626.53-.98-.37-1.044-.32-.675-.996-.74-1.462-.177-.177.21-.418.145-.643.161-.45.209-.193.723.21.836-.226.771-.338 1.559-.034 2.314m.29-14.562c-.37 1.045 0 2.411.964 2.99 1.11-.482 1.817-1.945 1.43-3.15.274-.225.596-.338.5-.708-.178-.417-.837-.112-.997-.594-.418-.563-.965-.096-1.302.273-.257.033-.515-.096-.74.033-.24.434.418.707.145 1.157m10.35 11.01c-2.298-.29-1.944 1.285-3.07.915.194-.257.756-.402.58-.771-1.688.723-3.44 1.253-5.112 2.009-.851.9-.578 2.7-2.49 2.86-.065.949-1.383 1.576-2.187 1.158-.337.305-.193.386-.145.659-.273.257-.658.836-.048.836.177-.048.322-.322.515-.241 0 .128-.017.24-.033.385.145 0 .37.048.418-.016.273-.338.643-.065.932-.322.996-.659 2.395-1.27 2.314-2.652 1.736-.755 2.749-3.568 5.015-2.587 1.125.61 1.43-1.206 2.427-1.238.29.659.418.61.787.386.627.482.515-.274.772-.643.033-.338-.321-.74-.675-.74m-12.89-7.12c.21.065.129.322.242.467 1.14.064 2.298-.241 3.455-.37.868 0 .836-.77 1.479-.883 1.527.08 2.491-1.27 3.938-1.495 1.157-.322 2.716-.756 3.745.064.24.273.594.321.964.257.482-.08 1.077-.193 1.334.386-.08.08-.16.16-.273.289.048.096.096.225.16.353.242-.033.274.177.37.322.129.225.434.225.482 0 .065-.273.338-.129.434-.37.033-.707-.112-1.59-.82-1.945-.353-.32-1.72.338-1.767-.337 1.028.225 2.99-1.093 1.64-1.96-2.283-.547-4.79.562-7.121.819-.916.209-.45-1.27-2.475-.884 1.302 2.716 4.098.804 6.268.771.017.242-.402.242-.305.53.643-.192 1.72.146 2.073-.481.21-.772 1.816-.595 1.35.305-1.221.771-3.038.418-4.468.579-1.736.144-3.648.176-5.288.803-.321 1.013-.771 2.057-1.945 2.299-.82-.804-2.009.144-2.877-.676-.289.065-.353.242-.466.45-.434.177-.578.418-.128.708m12.086 2.154c1.334-.017 4.436-1.495 2.186-2.717-1.27-.209-2.523.418-3.745.692-4.886 1.944-2.009-.434-5.047-.177 1.029 2.603 3.6 1.27 5.545.659.065.289-.289.353-.257.642.66-.144 1.286-.273 1.897-.402.257-1.27 2.587-1.285 1.527-.016-2.684 1.173-5.835.964-8.631 1.752-1.88 4.902-5.127 1.575-5.095 2.973-.74.065-.724.772.033.708.016 1.43 3.616-.226 4.291-.66.16-.337.305-.658.45-.98 1.109.53 1.88-1.045 2.829-1.334.948-.177 2.186-1.109 2.99-.257.9.996 2.233-.514 3.037.482-.305.772.096.434.225.916-.016.434.707.434.723 0 0-.193.017-.321.21-.385.401-.611-.45-1.286-.756-1.8-.659-.627-1.752.578-2.41-.097M60.69 26.81c-.418.434-1.093-.209-.675-.643.402-.434 1.093.21.675.643m-1.254 2.636-.273.145c-.257-.53-.675-1.543-.691-2.427 0-.21.305-.225.305-.017.017.611.257 1.43.66 2.299m3.487-.9-.402.048c-.996-.82-2.25-1.19-3.44-.98a2.352 2.352 0 0 1-.032-.322c1.35-.225 2.78.257 3.873 1.254m-1.092-1.479c-.402.434-1.093-.209-.659-.643.402-.434 1.077.21.66.643m-2.315-.24c-.402.433-1.077-.21-.66-.644.403-.434 1.094.21.66.643m4.291 1.51c-.402.435-1.093-.208-.659-.642.402-.434 1.077.209.66.643m-.917-.788c-.418.45-1.093-.209-.675-.626.402-.434 1.093.209.675.626M54.1 29.541c.595.017.611-.916.017-.916-.595-.016-.611.916-.017.916m2.7 1.013.29-.096c-.193-.547-.627-1.56-1.238-2.186-.145-.145-.385.064-.241.209.434.434.852 1.173 1.19 2.073m-3.022 1.816.305-.257c.128-1.286.723-2.427 1.704-3.134a3.462 3.462 0 0 0-.193-.257c-1.125.803-1.768 2.153-1.816 3.648m46.546 26.423v-.016c-.017.016-.017.016 0 .016m6.541-8.277h6.446v15.028H99.296V57.99l.017-.017-.017.017v-7.474zm7.78 15.028c.016-.29-.306-.498-.58-.418v.064c-.513 2.299-.272-7.168-.32-6.815l.466.193v-1.093l-.466.193.016-6.991c.048-.338.61-.048.305.177v.064c.643.209.836-.82.145-.836l.418-.74-.096-.095-.772.417c-.016-.642-1.093-.482-.884.129h.065c.225-.273.562.225.192.305h-6.445l.21-.434h-1.174l.193.434H99.49c-.385-.064-.064-.578.177-.305h.064c.21-.61-.868-.772-.884-.129l-.771-.417-.097.096.418.74c-.675.016-.498 1.044.145.835v-.064c.498-2.299.273 7.136.305 6.798l-.45-.176v1.093l.45-.193c-.032-.161.193 9.064-.305 6.814v-.064c-.643-.193-.836.836-.145.836l-.418.755.097.097c.016 0 .771-.434.771-.418.017.627 1.11.482.884-.145h-.064c-.096.16-.37.08-.353-.113 0-.08.08-.16.176-.176h6.43l-.193.434h1.173l-.21-.434h6.43c.096.016.177.096.177.176 0 .193-.257.274-.37.113h-.064c-.193.627.884.771.884.145.017-.017.772.418.788.418l.096-.097-.418-.755a.43.43 0 0 0 .434-.418m-14.354-6.895v.128c.033-.257.45-.064.24.112l.065.065c.434.048.498-.579.064-.611v-.017l.515-.225v-.144l-.515-.226v-.016c.434-.033.37-.675-.064-.627l-.064.08c.209.177-.21.37-.241.097 0 .016 0 .144.016.16h-.016v-5.544h.45v-.418h4.773c.258.048.033.418-.128.225l-.064.064c-.064.418.659.45.643.033l.257.498h.16l.242-.498c0 .418.707.385.659-.033l-.064-.064c-.177.193-.402-.177-.129-.225h4.774v.418h.45c-.048-.097.177 6.798-.225 5.287l-.08-.08c-.418-.048-.483.595-.049.627v.016l-.514.226v.144l.514.225v.017c-.433.016-.369.659.049.61l.08-.064c.402-1.575.177 5.481.225 5.288h-.45v.418h-4.774c-.273-.048-.048-.418.129-.225l.064-.064c.048-.402-.643-.45-.643-.048h-.017l-.24-.482h-.162l-.24.482h-.017c-.017-.402-.691-.354-.643.048l.064.064c.177-.193.402.177.112.225h-4.757v-.418h-.45zm6.638-7.185zm5.384 5.963zm-6.654 7.169h-.017zM111.865 64.998h.884V51.063h-12.89v13.935zm-8.374-17.166c.306-1.27.756-3.44 1.463-4.5l-1.382-.466c.016 1.366-.708 3.487-1.174 4.79.53.063.53.063 1.093.176m-7.49-2.54c-.016-.867.097-2.362-.273-3.102h1.768c-.273.804-.787 4.453.723 4.26.595.016 1.19-.402 1.174-1.029-.033-.868.112-2.475-.257-3.23h1.768c-.418 1.366-.418 3.776 0 5.159h-1.511c.033-.113.048-.29.048-.515-1.527 1.077-3.584.547-3.44-1.543m-3.793 1.399c1.993-.772.273-3.858-1.495-3.118-1.976.739-.273 3.857 1.495 3.118m3.038.803.016.017c-.803.643-1.816.385-2.668-.08-2.475 1.398-5.143-1.865-3.15-3.954 2.09-2.491 6.236.337 4.227 3.086.66.498 1.174.82 1.575.932m-11.62.69h1.655c-.627-.98-1.125-1.8-1.125-1.8.562-.337 1.784-.82 2.33-.787l-1.301-.98-3.986 2.378.466 1.527.016.017a3.375 3.375 0 0 1 1.35-1.447c.113.225.322.61.595 1.093m-5.915 7.296c-2.395-.16-2.893-4.275 0-3.648v-1.013c-3.745-.209-3.68 5.706 0 5.594zm-1.06 1.56c-.853-.66-1.962.546-2.814.739-1.494.08-.32-1.768.579-1.897l.016-.033-.723-.53c-1.35.691-2.363 3.616-.193 3.68.466.017 1.64-.803 2.025-.883 1.029-.193.708 1.173.097 1.494.305-.016.61-.048.916.033.562-.803.932-1.96.096-2.604m31.888 36.148 2.861-1.656c-.353-.29-2.588-3.921-2.668-4.372l-2.716 1.576.128 1.109h.016c.418-.53 1.03-1.029 1.817-1.48l.835 1.383c-.434.225-1.382.82-1.735.868l.498.61 1.575-.915.82 1.318c-.547.289-1.045.45-1.495.482zm11.347-10.078.499-.964-4.115-2.749-.45.852c.145.21 2.829 1.8 2.829 1.8s-4.42.563-4.613.917l4.098 2.812.483-.69a468.88 468.88 0 0 1-2.476-1.608s3.633-.402 3.745-.37m2.106-4.114.916-3.086c-.466.033-4.629-1.19-4.999-1.463l-.868 2.941.868.74.017-.017c-.064-.675.033-1.43.273-2.282l1.591.466c-.16.466-.45 1.51-.659 1.784l.788.112.498-1.703 1.51.434c-.176.562-.417 1.012-.738 1.334zm-8.792 11.138c3.215-1.398 2.491-4.597-1.125-3.134-1.527-.434.402-1.977 1.398-1.64l.033-.016-.755-.9c-1.141.498-2.958 2.025-1.993 3.327.675.852 2.025-.064 2.909-.048 1.463.273-.112 1.8-1.029 1.703l-.016.033M75.139 67.49l.08-1.125c-1.494.289-3.905.289-5.4-.017l-.08 1.125c1.51-.273 3.922-.273 5.4.017m.515 18.29.884 1.222c.932-1.157 2.877-2.556 4.259-3.086l-.884-1.238c-.338.563-1.093 1.125-1.688 1.527l-1.35-1.88c.579-.434 1.334-.965 1.977-1.125l-.9-1.222c-.932 1.157-2.877 2.556-4.26 3.086l.885 1.222c.337-.547 1.093-1.093 1.671-1.511l1.366 1.88c-.578.434-1.334.965-1.96 1.125m-3.231-8.438c1.109-2.025 4.822-.82 3.279 1.479-1.141 1.96-4.79.852-3.28-1.479m-.288 2.7c2.523 2.427 6.51-1.446 3.89-3.953-2.54-2.443-6.59 1.462-3.89 3.953m-1.88-6.718.304 1.141 5.24-.643-.257-1.044c-.273-.049-3.536.546-3.536.546s3.102-3.616 3.038-4.05l-5.304.594.112.917c.257-.033 3.118-.434 3.118-.434s-2.588 2.925-2.716 2.973m67.794 7.538c-.145.16-1.077 2.829-1.398 2.716a.63.63 0 0 0-.66-.273c-.144-.064-.208-.273-.127-.434.176-.193 1.06-2.925 1.462-2.732a.626.626 0 0 0 .691.353c.08.097.097.241.033.37m-2.54 9.306c.08-.675-.787-1.045-1.14-.466.08-.258-.242-2.813.225-2.813.209.145.466.177.675.016.145.017.273.161.273.338v2.764c0 .064-.017.113-.033.161m1.366 4.822c-.82 4.71-6.863.048-2.523-1.945.193.466.884.482 1.077.017a2.006 2.006 0 0 1 1.446 1.928m.627-15.75c-1.318-.82-2.057 2.828-2.556 3.455-.225.546-.016 1.125.466 1.286l-.964 2.025c-.53-.08-.98.305-.98.916.193.788-.595 4.211.803 4.26v.948c-3.359.594-2.86 5.882.595 5.802 3.423.08 3.954-5.16.643-5.802v-.917c.514.097.964-.305.964-.916-.177-.755.53-4.066-.69-4.227l.738-1.543c1.27.675 1.994-2.877 2.476-3.488.225-.498.048-1.06-.386-1.253l.563-1.157c-.161-.21-.482-.692-.804-1.206zm.787-1.978v.016a6.1 6.1 0 0 1-.289-.546c.017.225.112.418.29.53M97.045 4.163c-.16 1.318-.852 2.33-1.704 2.491v.338h1.672c-.08.064-.16.128-.21.208-2.989.66-3.294 5.208-.45 6.285-1.108-1.077-.256-3.134 1.319-3.086 1.559-.048 2.427 2.009 1.318 3.086 2.845-1.077 2.523-5.626-.45-6.285a.854.854 0 0 0-.21-.208h1.672v-.338c-.852-.16-1.543-1.173-1.703-2.491 1.301.177 2.33.852 2.49 1.72h.338V1.205h-.337c-.161.852-1.19 1.543-2.491 1.72.16-1.318.851-2.346 1.703-2.491V.096h-4.66v.338c.851.145 1.542 1.173 1.703 2.491-1.318-.177-2.33-.868-2.491-1.72h-.338v4.678h.338c.16-.868 1.173-1.543 2.49-1.72m1.448 8.679c1.14-2.138-2.78-2.138-1.64 0a1.582 1.582 0 0 1 1.64 0m-1.543 2.154a1.634 1.634 0 0 1 1.446 0c1.479-2.267-2.925-2.267-1.446 0m.723 2.523c1.334.017 1.334-2.073 0-2.057-1.334-.017-1.334 2.073 0 2.057m0 2.588c1.334.016 1.334-2.09 0-2.074-1.334-.016-1.334 2.09 0 2.074m0 2.571c1.334.033 1.334-2.073 0-2.057-1.334-.016-1.334 2.09 0 2.057m-2.91.016h1.27c0-2.427-.225-6.991-1.735-10.302-.338-.755-1.511-.21-1.158.53 1.045 2.299 1.624 5.77 1.624 9.772m4.548 0h1.27c0-4.002.579-7.473 1.623-9.772.354-.739-.82-1.285-1.157-.53-1.51 3.31-1.736 7.875-1.736 10.302m-10.27-8.823c1.221.016 1.221-1.913 0-1.897-1.238-.016-1.238 1.913 0 1.897m-8.085 5.85c1.222.016 1.222-1.929 0-1.913-1.237-.016-1.237 1.93 0 1.913m10.448-6.718c1.221.016 1.221-1.913 0-1.897-1.238-.016-1.238 1.929 0 1.897M77.984 23.787c1.238.033 1.238-1.912 0-1.896-1.221-.017-1.221 1.929 0 1.896m1.382-2.105c1.238.016 1.238-1.929 0-1.913-1.237-.016-1.237 1.929 0 1.913m7.426-6.702c1.237.016 1.237-1.913 0-1.897-1.238-.016-1.238 1.929 0 1.897m-9.95 11.041c1.238.033 1.238-1.912 0-1.896-1.237-.017-1.237 1.929 0 1.896m5.883-8.084c1.238.016 1.238-1.929 0-1.913-1.237-.016-1.237 1.929 0 1.913m1.945-1.591c1.238.016 1.238-1.913 0-1.897-1.237-.016-1.237 1.929 0 1.897m30.361 4.388c-.016 1.221 1.913 1.221 1.897 0 .016-1.238-1.929-1.238-1.897 0m-.643-1.013c1.238.016 1.238-1.929 0-1.913-1.237-.016-1.237 1.93 0 1.913m2.01 3.118c-.017 1.238 1.912 1.238 1.896 0 .016-1.237-1.913-1.237-1.897 0m1.158 2.234c-.017 1.238 1.912 1.238 1.896 0 .017-1.237-1.928-1.237-1.896 0m-4.935-7.136c1.238.016 1.238-1.929 0-1.913-1.237-.016-1.237 1.929 0 1.913m-4.066-2.957c1.238.016 1.238-1.913 0-1.897-1.238-.016-1.238 1.929 0 1.897m-4.613-1.977c1.238.016 1.238-1.913 0-1.897-1.237-.016-1.237 1.929 0 1.897m2.363.868c1.237.016 1.237-1.913 0-1.897-1.238-.016-1.238 1.913 0 1.897m4.356 2.475c1.237.016 1.237-1.913 0-1.897-1.222-.016-1.222 1.929 0 1.897m-31.663 9.306 1.735-.547c2.668-4.854 7.12-8.454 12.408-9.772-.128-.466-.257-.9-.402-1.302-6.01 1.56-11.01 5.867-13.742 11.62m35.617-.546 1.72.547c-2.716-5.754-7.715-10.062-13.726-11.62a9.54 9.54 0 0 0-.402 1.301c5.272 1.318 9.74 4.918 12.408 9.772M80.234 93.06c.66 1.27 4.565 4.71 5.626 3.086-1.897-.964-5.128-3.343-3.89-6.365-2.797-1.72-.337-4.468 1.848-2.137 2.33-1.43 4.919-.402 7.2 1.189.82-1.784-3.165-3.022-4.098-3.536-1.189-.402-4.886.434-6.14.498a1.57 1.57 0 0 0-1.365 1.704c.176.9.16 4.822.82 5.561m4.307-.804c3.037.017 2.652-4.805-.354-4.29 1.399.755 2.588 2.731.434 3.31-.803.16-1.64-.707-2.234-1.141a2.158 2.158 0 0 0 2.154 2.121m.353-2.009c.788-.932-1.96-2.17-2.362-2.7-.322-.193-.74-.145-.949.145-.787.884 1.913 2.138 2.283 2.636.337.257.787.225 1.028-.08m16.909 13.58c-1.013.113-1.543.804-2.09 1.512-.482-.306-1.109-.595-1.704-.595-.305 0-.61.08-.867.305 1.864.74 1.189 3.552-.627 3.568-1.817-.016-2.492-2.828-.627-3.568-.257-.225-.563-.305-.884-.305-.579 0-1.206.29-1.688.595-.546-.708-1.077-1.399-2.09-1.511.563 5.191 2.926 7.779 5.289 7.779 2.362 0 4.725-2.588 5.288-7.78m-.852 1.126c-.724 4.114-2.684 5.963-4.436 5.963-1.752 0-3.713-1.849-4.436-5.963.225.209.434.466.69.803l.37.499.547-.338c.225-.145.45-.257.659-.337a2.528 2.528 0 0 0-.21 1.623c.226 1.238 1.206 2.106 2.38 2.106 1.173 0 2.137-.868 2.378-2.106a2.523 2.523 0 0 0-.209-1.623c.21.08.434.193.66.337l.546.338.37-.499c.256-.337.465-.594.69-.803m-9.868-11.155c.257-1.14-1.543-1.51-1.752-.353-.257 1.125 1.543 1.495 1.752.353m6.14 3.038c.241-1.141-1.543-1.51-1.768-.353-.257 1.125 1.543 1.495 1.768.353m-1.302 5.513c-.209.932 1.238 1.222 1.414.29.193-.917-1.253-1.206-1.414-.29m.193-29.043c-.675-.048-1.398-.193-2.057-.257-1.286 1.125.16 1.768 1.125 1.687.836.21 1.929-.884.932-1.43M85.41 76.329c1.414 1.8 2.812 3.632 4.195 5.448.209.033.594.113.594.113l-5.014-6.655s-.08.676.225 1.093m6.155 5.401-6.14-8.133s-.112.37-.16.547c.45.594 5.882 7.795 5.882 7.795zm-.594 3.263a4.259 4.259 0 0 0-.338-.097c-.16.434-.417 1.254-.016 1.543l1.993.852 2.572-1.912.69-10.287-.755.048c-.209.033-1.607 11.894-2.33 11.203.145-.788 1.848-11.187 1.848-11.187s-.498-.08-.755-.112c-.048.241-.097.547-.097.547l-2.828-3.713-.37.177 3.022 3.986-.193.707c-.273-.193-3.199-4.243-3.488-4.629l-.595-.048 3.938 5.143-.209.691-4.42-5.802-.562-.016 4.773 6.316-.241.9-5.256-7.136-.707.016 5.818 7.667-.209.707-6.413-8.374-.112.643s5.979 7.844 6.333 8.358c-.306.98-.065 1.06.353 1.864.225.884-.386 2.283-1.447 1.945m-6.894-3.697c.723.418 1.51.884 2.25 1.286-1.784 2.17 1.414 3.118 1.237.996 1.19.515 5.899 1.961 4.002-.852-6.155.193-9.306-6.268-5.898-11.218 2.09.948 9.37-2.588 8.76 1.012.385.402.498.434 1.35.434 2.121-4.837-5.144-3.39-7.748-2.828-2.33.69-4.468-2.717-6.509-.852-.82.723-.29 2.33.82 2.378.98.033 1.253-1.317.385-1.735 1.913-.643.997 2.427.306 3.214-2.202-1.141-2.572 2.395-.386 1.463.096.643.112 1.27-.033 1.88-2.379-.514-1.736 2.877.033 1.511.514.482.755 1.254.82 1.977-2.379.337-.482 3.375.61 1.334m-24.992-49.6c-.033-.466.305-1.366.305-1.366-.466.177-1.43.562-1.896.74 0 0 .867.433 1.157.787-.386.145-.772.209-1.334-.033l.74 1.462c.16-.642.497-1.028.738-1.092.804 1.221-1.173 2.571-2.04 1.526-.242-.434.047-.9.562-.546-.08-.9-.868-.9-1.11-.225.034-.932-.208-1.495-1.173-1.768-.257.932.049 1.479.98 1.88-.53-.064-1.108.45-.385 1.11.017-.595.499-.66.756-.258.434 1.093-.852 1.495-1.897.402.241-.08.482-.048.82.033l-.997-1.27c.049.45.017.772-.08.965-.209-.241-.273-.466-.37-.948l-.755.675c.724.45 1.543 1.173 2.54 2.587 1.318-1.302 6.654-3.52 8.727-3.471-.257-1.72-.16-2.797.048-3.633l-1.012.048c.273.418.37.611.385.949-.209-.097-.45-.306-.707-.66l.128 1.608c.193-.29.354-.482.579-.579 0 1.511-1.222 2.09-1.655 1.013-.08-.466.32-.756.723-.338.08-.964-.691-.964-1.029-.546.402-.932.241-1.543-.578-2.041-.53.868-.306 1.43.337 2.105-.627-.337-1.206.21-.627.916.112-.61.643-.466.772.017.096 1.35-2.267 1.736-2.524.29.21-.13.723-.081 1.286.272l-.482-1.559c-.225.563-.547.772-.932.949m-5.61-1.158c.611.016.611-.916.017-.916-.595-.017-.61.916-.017.916m1.447-1.816c.61.016.61-.916.017-.916-.595-.017-.611.916-.017.916m-1.929 4.13c.611.017.611-.932.017-.932-.595-.016-.61.932-.017.932m.097-1.205c.61.016.626-.932.016-.932-.595-.017-.61.932-.016.932m2.668-6.365-.933.064.483 1.222.643-.756c.048.017.08.033.128.049l.096 1.623c.161 1.43 2.33.546 1.463-.595l-1.029-1.237a.95.95 0 0 0 .048-.129l.997.113-.482-1.222-.724.595a.18.18 0 0 0-.128-.048l-.08-1.19c-.29.129-.9.354-1.19.482l.756.917a.144.144 0 0 0-.048.112m2.668 4.838c.402-.353-.193-.948-.563-.579-.402.354.193.949.563.579m-.499-1.077c.386-.353-.209-.948-.578-.578-.402.353.193.964.578.578m70.479-12.569c.209-.739-.852-1.72-1.592-1.414.097.804.949 1.527 1.592 1.414m-9.322 41.146c.707-.418 1.462-.74 2.105-1.254a9.96 9.96 0 0 1-.434-.61c-.61.61-2.073.803-1.671 1.864m4.05-1.623c.353.627.723 1.237 1.06 1.848 1.415 0 .226-1.173-.096-1.687-.193-.193-.578-.193-.884-.29-.033.048-.064.08-.08.129m6.975-37.658c-.546-1.157-.82-1.302-1.96-1.174.466 1.142 1.157 1.56 1.96 1.174m-.755.707c.402 1.366.932 1.655 2.33 1.447-.45-1.11-1.157-1.56-2.33-1.447m-2.91 16.169c-1.526-.707-2.764.193-4.29-.145.433 2.138 2.957.579 4.29.145m4.405-14.015c-.08 1.35 1.044 2.121 2.925 2.025-.498-1.366-1.463-2.106-2.925-2.025m4.982 4.725c.033-.064.08-.112.113-.177-1.11-1.575-1.576-1.896-3.52-1.913.033 1.913 2.009 1.93 3.407 2.09m-19.56 28.786c.37-1.029 2.33-3.568 1.286-4.356-.499.29-1.527.161-1.43.933v3.375l.144.048m-6.011-7.088c.434-.033.82-.064 1.19-.096.433-1.56-.467-1.72-1.528-2.572-.434 1.302-1.575 1.929-2.218 3.022 1.045-.064 1.656-.402 2.25-1.222.097.306.21.595.306.868m12.167 11.653c-2.62 3.198-2.636 3.664 1.35 5.046-.048-.37-.064-.61-.097-.868-.771-.24-1.542-.53-2.234-.996.499-.627.965-1.205 1.447-1.8a35.18 35.18 0 0 0-.466-1.382m1.64 9.37a60.439 60.439 0 0 1-2.219-.177c.033.402.048.691.08 1.013.434.112.82.193 1.222.305.128 2.314-1.157 2.346-2.877 1.382-.515 2.941 4.227 2.636 3.793-2.523m9.756-40.069c.884 0 2.154.563 2.893.048.017-2.813-3.423-2.443-5.368-2.491.579 1.045 1.318 2.09 2.475 2.443m7.474 3.488c.803 1.928 2.105 1.478 2.957 2.732-.723-.225-1.334-.434-1.96-.643-.034 2.057 2.555 2.282 4.001 3.07-.24-3.327-1.864-4.597-4.998-5.16m.514 10.625c-.048 0-.096.016-.145.033-.434 1.88.884 3.536 1.704 5.127 1.414-2.524 1.366-5.385-.916-7.394-.691 1.35.273 2.62.627 3.89-.048.016-.097.048-.145.064-.37-.578-.74-1.157-1.125-1.72m.547-12.28a.464.464 0 0 0-.033.161c-.595-.033-1.19-.064-1.8-.096.659 2.121 3.134 1.093 4.693 2.073-.9-1.72-1.543-3.391-3.617-3.713.21-1.012-.048-1.976-.69-2.362.016.9-.354 1.543-1.174 1.88-.402 1.768 1.447 1.672 2.62 2.058M64.53 46.69c-1.88.113-1.607-2.25-2.17-3.567-.337.385-.626.707-.932 1.044.386 1.318.788 2.636 1.19 4.035.321-.225.578-.402.868-.611 1.318.932 2.507.29 2.957-1.157.385.096.74.257 1.012-.017-.61-1.27-1.205-2.507-1.816-3.76-.37.08-.723-.45-1.173-.034.418 1.174 1.977 3.52.064 4.067m78.177-10.382c-.675 1.302 1.286 1.848 1.302 3.07-.514-.402-.948-.756-1.447-1.141-.626 2.41 2.235 3.182 3.119 5.095 1.14-3.52.514-5.658-2.974-7.024M79.173 91.405c.804-.74-.289-1.174-.707-1.752-7.12-6.622-9.772-15.237-9.145-24.784-.177-.096-.386-.193-.74-.37-1.189 10.126 2.717 20.364 10.592 26.906m-23.675-43.91c.434 1.044 1.077 2.25 2.138 2.684-.546-2.058.836-3.858 1.495-5.722.016 4.307-2.427 6.638 3.455 8.213-1.559-2.524-.53-5.594-1.51-8.197-.965-.547-2.025-.675-2.668-1.479-.177-.37-.499-.514-.836-.579-1.11-.257-2.138-.61-2.684-1.543-.82.258-1.302.226-2.041-.08-.065.916.707 1.833 1.735 1.495-.82 1.19-.37 2.266-.064 3.52.595-1.238 1.495-1.993 2.507-2.62-.771 1.318-2.153 2.652-1.526 4.308m11.556-8.535c.289 1.43-.113 2.604-1.045 3.729 1.398 2.507 3.777 4.404 4.822 7.104 2.33-4.356-.161-5.835-3.376-8.23 2.058.756 4.147 1.463 5.288 3.424.241-3.745-1.414-5.625-5.046-6.204.016-.048.016-.096.032-.145 1.511-.064 3.022-.064 4.436.852-.369-1.157-1.317-2.86-2.684-2.732.499-1.029.483-1.704-.016-2.33-.225.722-.691 1.173-1.43 1.205.16 1.285-.274 2.378-.981 3.327m-12.344.948c.033-.498.064-.964.096-1.495-.546-.08-1.06-.177-1.64-.273.676-.514 1.496-.627 2.154-.37-.578 2.38.434 4.067 2.99 4.196.788-1.158 1.495-1.334 2.25-.515-3.375-.353-.868 3.215.852 2.01.466-.66 1.913-1.238 1.495-2.17-2.684-1.961-2.492.932-2.99-3.906a2.583 2.583 0 0 0-.337-.033c-.257.916-1.157 1.623-1.897.755-.257-.289-.482-.546-.9-.626 1.833-1.463 4.018.659 3.89-2.797 2.041 2.572 2.218-.273 4.243-.321-.096 2.025-.514 1.88-2.266 1.752.578.45 2.748 2.62 1.478 2.812-.53-1.35-1.414-2.668-2.925-2.941-1.221 1.205-.627 2.572-.434 3.97 1.077-.37 2.01-1.06 3.15-.98.386 1.125-1.414 1.751-.402 2.844 1.752.29 3.633.306 3.086-2.17-.562-.337-1.125-.562-1.72.065.034-.965.965-1.125 1.688-.949 1.624-1.72 1.077-3.97-.643-5.352.45-.675.933-1.14 1.768-1.302-.289.579-.868.788-.996 1.318.37.483.74.916 1.093 1.35.932-.402 1.157-1.864.514-3.343-1.141.29-3.166 1.238-3.166 1.238-.98-.37-.547.112-.418.595-3.15.578-6.236 1.398-8.728 3.487-.45.322-.658.129-.803-.498-.29-.466-.434.321-.482.514 0 0-1.88.467-2.717 1.174.595.948 1.415 2.475 2.717 1.96m74.802 30.459c-.884.144-1.077.514-.917 1.366-.98 2.105-1.012 4.677-2.684 6.477 3.6-1.029 2.797-2.395 3.68-5.127-.176 3.713.017 3.664 1.351 6.204-2.764 1.945-7.297.321-8.824 4.098.434.483.965 0 1.543.129-.37.434-.514.948-1.093 1.334.129-.37.193-.595.273-.82-1.028-.353-1.88 2.025-2.668 2.797 7.41-1.495-.884-3.665 13.71-5.369 2.588-1.221-2.443-3.118 2.636-6.332.45-1.752.723-3.552 1.672-5.143.225-.515-.129-1.238-.611-1.608-2.218 1.56-3.279-.964-8.068 1.993M71.683 86.92c.692.113 1.463.258 2.122-.048-1.045-1.768-2.057-3.504-3.118-5.32-1.848 2.283-5.063.884-7.072-.514-1.655-1.206 1.897-3.086.756-7.12 1.575 2.54-1.286 4.741 3.15 6.172-1.286-1.913-1.11-4.356-1.591-6.542-.065-.385-.242-.755.064-1.125.145-.53.177-1.238-.53-1.318-4.951-2.845-3.955-1.463-8.776-2.122-1.19 2.09 1.334 3.954.932 6.012-.354.996 1.173.948 1.141 1.928.337 1.527.177 3.649-1.559 4.243-.868.515-.177 1.624.579 1.881-1.527 2.764-.354 3.198 1.993 4.597.016-1.077.033-2.01.466-2.91 3.246 2.154-1.575 2.508 4.838 5.112-.643-1.077-.627-2.25-.724-3.327.595.144 1.19.289 1.8.434.692 2.973 2.299 3.23 5.144 2.973-1.029-1.013-1.318-2.33-2.042-3.375.852.289 1.704-.29 2.427.37m66.605-9.644c.033.048.064.096.096.145l.017-.065zm.997-.45c.145.064.289.177.337.337a.342.342 0 0 0 .321-.145c.049-.16 1.736-2.394 1.543-2.54-.177-.063-.353-.192-.417-.401-.161-.145-.386-.225-.547.016-.064.274-1.96 2.411-1.463 2.684.065 0 .145.017.226.049m20.492-16.298c-1.19.354-1.687 1.35-2.137 2.46-2.974-4.646-8.664-7.876-9.531-13.566.675-4.565 6.718-3.52 5.48 1.238 3.134-1.688 1.624-4.822-1.334-5.369 3.215.258 4.967 2.958 7.153-1.543-1.897.692-4.774.193-5.77.049 3.985-.547 6.155-.499 6.043-5.465-1.366 2.973-5.127 3.022-7.86 3.986.177-1.318-.24-2.122-1.302-2.556 1.077 7.25-12.649 4.886 2.443 20.525-1.848-1.029-4.002-.675-5.802-1.816 1.399 3.76 3.761 3.118 6.847 4.42-3.31-.017-4.34 3.214-1.896 4.773-.627-2.507 2.796-4.21 4.516-2.266 3.922 5.03-3.263 12.022-9.611-.595.033.708-.45 1.334-1.125 1.11l-.724 2.009c1.463.53-.771 3.343-.932 4.146-.241.547-.82.707-1.238.418l-.707 1.463c.884.803-1.478 3.102-1.752 3.809-.273.418-.771.546-1.109.337l-.257.515c.048.08.08.112.097.112 1.607 1.913 2.346 3.375 1.912 5.4 1.302-1.125 1.88-4.227.836-5.914 1.19 1.221 2.893 2.105 3.568 3.68.675 2.861.16 5.706-1.784 7.956-.82.836-.595 1.27-.707 2.282-.547 1.624-2.475 1.752-3.199 3.119-.514 1.189-1.366 2.17-1.72 3.423 2.186-.337 1.817-3.391 3.89-4.018-.852 1.286-1.671 2.459-2.234 3.938 1.72-.45 4.999-.917 4.452-3.36-.418-1.125.675-1.864.627-2.94 1.366-.499 1.045-1.046 1.704-2.122.305.659.321 1.205.273 1.896-.161-.353-.273-.562-.386-.82-.98 1.318-.16 2.604-.305 4.003 4.79-4.276-1.559-4.244 3.391-13.726 1.141-1.897-3.23-1.672-3.568-5.947-.305-1.849 1.318-3.36 1.656-5.111 1.912 3.391 8.582 3.278 7.666 7.618 1.35-1.013 1.286-2.86.772-4.26 6.879-2.474 1.446-8.807 3.664-13.291m-16.25 10.914c.034-.274 1.463-2.636 1.094-2.845-.257.048-.563-.08-.675-.338-.338-.145-1.254 2.427-1.415 2.604.466-.29 1.045.177.884.707a.29.29 0 0 0 .113-.128m1.43-6.815a.341.341 0 0 0 .097.273c.257-.225.675-.128.851.128.306-.08.21-.996.258-1.221a16.024 16.024 0 0 0-1.061-1.029zm-37.24 44.424c4.63-.916.53-6.429-5.175-4.195-.498 2.202-.948 4.26-2.797 5.899 3.665.16 7.217-.064 10.64-1.527 1.704-1.012 1.704-4.71 3.536-6.702-2.105-.418-1.109 6.75-6.204 6.525m-17.342-4.114c-5.69-2.25-9.82 3.262-5.175 4.195-5.095.209-4.115-6.944-6.22-6.526 1.848 1.993 1.848 5.674 3.552 6.702 3.407 1.463 6.975 1.688 10.64 1.527-1.849-1.64-2.299-3.696-2.797-5.898m30.232-56.56a.51.51 0 0 1-.064-.626c-.24-.065-.643 2.201-.723 2.33.16.16.305.321.434.466.225.064.579.193.659-.112l.514-1.993c-.24.209-.627.225-.82-.064m24.254 9.771c-.434-.048-.788.338-.643.804-.048 0-.08-.016-.128-.048l-2.01-1.366a.326.326 0 0 1-.096-.418c.386-.017.788-.21.74-.675.144.209 2.314 1.35 2.137 1.704m-7.393-6.976c-.112.145-.37.45-.37.45-2.218-2.54-9.74-5.448-12.986-4.982 0 0 .048-.37.064-.579l-.017.016 1.238-.787-1.06-.868c.016-.128-.676-4.404-.676-4.404l1.865-.048s-.675.771-.691 1.398a.816.816 0 0 1 .257.306c.37-.161.771-.933.771-.933l.177 2.524s-.514-.723-.9-.852a.59.59 0 0 1-.128.241c.53 1.688 2.99 1.784 2.99.354-.081-.756-.917-.627-.869.16-1.35-1.06.466-2.764 1.222-1.06-.097-.98-.017-1.543.755-2.026.498.643.434 1.238-.112 2.202 1.64-1.543 2.266 1.061.723 1.43.756-1.35-1.414-.931-.61.5.723 1.124 2.49.947 3.117-.258a.566.566 0 0 1-.096-.225c-.61-.129-1.543.402-1.543.402l.868-2.33s.353.996.868 1.301a.852.852 0 0 1 .337-.177c.097-.61-.514-1.575-.514-1.575l2.86 1.11s-1.14.288-1.494.803a.66.66 0 0 1 .113.353c.594.113 1.559-.37 1.559-.37l-1.03 2.267s-.288-.996-.819-1.334a.56.56 0 0 1-.24.112c-.403 1.318.787 2.604 2.089 2.267 1.575-.483.32-2.267-.097-.772-.852-1.318 1.447-2.764 1.56-.562.272-1.061.642-1.543 1.462-1.672.209.868-.128 1.334-.884 1.977 1.768-.74 1.848 1.72.145 1.575.578-.546.064-1.173-.515-.691-1.028 1.077.884 2.588 2.38 1.832 0-.096.032-.177.063-.273-.37-.257-1.253-.29-1.253-.29l1.832-1.35s-.209.82-.033 1.254a.864.864 0 0 1 .402.048c.386-.402.418-1.462.418-1.462l1.366 1.703s-3.44 1.576-4.05 2.042l-.948-.097.466 1.35zm-10.094-12.408c.563.21 1.11.498 1.688-.064-.547-.017-.723-.402-.884-.772-.273-1.896 2.829-1.221 3.97-1.093 2.893 1.768 7.827.643 6.107-3.552 1.35.836.884 3.135-.128 4.035-2.684 1.446-5.224.353-7.892 3.182-.402-1.286-1.944-1.221-2.49.209-.515.033-.644.016-1.142.048-.08-.74.53-1.286.772-1.993m7.152-7.265c-.852.579-1.624 1.447-2.491.274-.21.032-.37.064-.579.112 1.286-2.01 1.19-1.656 3.07-.386m2.909-4.58c.643.69.916 1.462.916 2.33-.61-.209-.884-.884-.916-2.33m-26.664 11.347 3.246-1.157 1.174 2.395-2.25 1.43zm-2.074-.563c-.418 2.476-5.963 1.399-5.432-1.044.418-2.475 5.963-1.399 5.432 1.044m-11.026 1.077-3.471-2.443 3.471-2.443 3.456 2.443zm-7.94.306c-3.52.707-4.259-3.167-.739-3.81 3.52-.707 4.26 3.167.74 3.81m-7.346 1.848-2.25-1.43 1.19-2.395 3.246 1.157zm42.673-7.763c.29-.033.514-.064.836-.096-.547-.386-.017-.917.418-.547 1.077.836-1.061 2.186-1.254.643m21.473 27.725-.305-.033-.788-2.153c.37-.483.563-1.238-.016-1.624-.772-.305-2.958-2.812-3.6-1.19-.29.097-2.01.194-2.154.515-.82-1.302-1.527-2.7-2.041-4.26.337-1.8 5.11-4.05 5.11-4.05s-1.366-1.944-1.896-3.037c-.241.53-.466.305-.996.546 2.652-4.709 3.214-10.913-.29-15.349-.353-.787-.193-1.8-.546-2.555-.61-.804-1.029-2.38-2.106-2.54 0 1.382-.144 2.765.53 4.05.724.9-.98 1.672-1.51.965 1.012-.113 1.19-.322.836-.9-4.372-.98-6.815 2.09-10.994 2.571-.37 0-.707.129-.9.466-2.572 3.472 3.198 1.11 3.697 3.408-.965.787-1.093.273-1.993.033-1.302.048-2.572.45-.949 1.559-.996 1.559-.932 2.105-2.957 2.234.884 1.237.691 3.021.916 4.42-1.43.273-2.41.964-2.443 2.491-.643.145-1.334-.193-1.8.498-.9-.74-1.929-.884-3.022-.9-.514-.385-1.8-1.302-3.182-2.009.273-1.029.546-1.977.788-2.877.402-.241 1.848-1.173 2.218-1.414-.193-.386-.965-1.929-1.158-2.33 2.572-8.889 3.408-9.387 4.71-9.58l.08-.241-4.774-1.527-.08.305c1.206.884 1.591 2.33 1.045 4.034-1.286-.546-2.01-1.751-1.865-2.828a5.893 5.893 0 0 0-.321-.097l-1.591 5.304s.225.065.257.065c.627-.9 1.72-1.415 2.99-1.206-1.48 4.71-8.133 3.247-6.944-.74.852-1.655 2.46-.594 1.688 1.126 3.729-1.302 1.527-6.67-1.656-3.472 1.045-2.154 1.656-3.857.322-5.947-1.72 1.11-2.154 3.102-1.817 5.77-2.105-4.821-5.786.145-2.796 2.652-.547-3.584 3.857-1.221.884 1.656-2.845 2.025-6.333-.29-6.445-3.842 1.64.145 2.893 1.11 3.07 2.331.032 0 .305.016.305.016l.193-6.059s-.338-.016-.37-.016c-.257 1.221-1.59 2.266-3.278 2.298.112-1.88 1.189-3.327 2.587-3.568v-.353H94.17v.353c1.398.241 2.459 1.688 2.571 3.568-1.687-.033-3.021-1.077-3.263-2.298-.032 0-.369.016-.369.016l.193 6.06s.273-.017.305-.017c.161-1.221 1.43-2.186 3.07-2.33-.112 3.552-3.6 5.866-6.445 3.84-2.99-2.876 1.43-5.239.884-1.655 2.973-2.523-.691-7.457-2.797-2.652.338-2.668-.112-4.66-1.816-5.77-1.334 2.09-.723 3.793.322 5.947-3.199-3.198-5.385 2.17-1.656 3.472-.771-1.72.836-2.78 1.672-1.125 1.189 3.986-5.449 5.432-6.928.74 1.27-.21 2.363.304 2.99 1.205.033 0 .257-.065.257-.065L81.553 27.5s-.273.08-.306.097c.129 1.077-.594 2.282-1.864 2.828-.547-1.703-.16-3.15 1.045-4.034l-.08-.305-4.774 1.527.064.241c1.302.193 2.154.691 4.725 9.58-.209.417-.964 1.944-1.157 2.33.37.24 1.833 1.173 2.218 1.414.225.82.466 1.688.707 2.604.017 0 .017 0 .033-.017-.016.033-.016.049-.033.017-6.429 3.005-4.966 5.047-9.9 4.452-.45 1.029-.868 2.041-1.865 2.732-.193-1.559-.884-2.78-1.816-3.89-.45-.53-1.077.065-1.752.113-1.35 2.925-2.266.29-4.629 1.816.097 1.35.306 2.717 1.045 3.97-1.752-.128-3.198-.594-4.372-1.43-5.255 5.866-10.736 11.508-15.22 17.953-2.395 3.166-8.808 1.334-7.12-3.038.771-3.182 5.384-2.507 5.094.66 2.267-2.54.804-5.048-2.668-4.485 3.183-1.382 5.111 1.221 7.988-2.363-2.201.048-4.066-.643-6.252-.145 2.765-1.655 6.574.82 8.953-3.777-2.074.225-3.938 1.093-6.076 1.415 12.81-12.215.482-12.826 2.058-18.098-.997.836-1.576 1.688-1.11 2.829-2.876-1.19-7.136-.836-8.293-4.324-.29 4.967 1.897 4.613 5.658 5.626-1.736-.21-3.44-.225-5.063-.82.337 2.234 2.025 2.7 4.002 2.491-1.945 1.077-1.495 3.841.482 4.806-1.27-7.185 9.499-4.725 4.58 1.864-2.282 3.408-5.576 5.931-8.357 8.904-.514-.9-1.06-1.816-2.282-1.687 2.121 2.443-.274 5.095-.82 7.602-.82 3.118 1.929 5.754 4.87 6.124-1.173 1.398-1.27 2.636-.37 3.76.9-4.564 7.522-3.535 8.133-8.47.128-.578.402-1.044 1.045-1.301-2.974 3.375 4.195 10.511-2.556 11.347-.964.033-1.19 1.045-.659 1.752-2.78-.129-3.552.932-3.986 3.552 1.238-.321 2.38-.61 3.536-.916-1.221 3.182-3.97-.177-3.52 5.48a34.174 34.174 0 0 0 3.215-1.751c.996 3.166-5.047 1.8-.514 6.863.289-.949 1.51-2.877 2.121-3.311-.562 1.59-.418 3.44 1.366 4.146.08-.418.161-.803.225-1.173h.145c.273 1.045.306 2.523 1.318 3.134.338.129.53.322.643.675.177.579.723.74 1.254.82.675.128.836-.627 1.334-.932.145.836 1.125.964 1.607 1.687.37-4.13-5.095-2.636-3.841-5.352.498 1.656 2.04 1.302 3.118 1.977.418.691 1.446 1.254 1.977.305.498.386.964.724 1.414 1.061-1.06-4.902-3.6-1.864-5.207-4.436 1.125.048 2.314 1.704 3.503.579.66.659 1.158 1.446 1.64 2.218.193-1.56-.386-2.749-1.624-3.617-1.382-.851-3.262.66-4.452-1.044-1.623-1.993-1.575-4.806-.739-7.136.771-1.785 2.941-2.443 3.938-4.131-.29 1.495-.145 4.082 1.543 4.564-.402-2.764 1.559-5.255 1.96-7.94.515-.674.547-1.205.08-1.928-.835-1.382-1.076-3.038-1.992-4.388-1.447-2.025-3.215-2.073-.29-4.195-1.784 2.749-.32 1.752 1.206 4.356.29-.884 1.607-2.025-.033-2.025-2.588-1.27 3.36-4.565 4.71-4.645 1.317-.097 3.182.048 4.178-1.27-.627-1.19-1.237-1.366-.16-2.604-.724-.418-1.367-.916-1.495-1.864-.676.241-1.286.45-1.994.691.643-.74 2.556-2.218 2.765-.579.048.933.964 1.093 1.672 1.334-.515.756-1.383 1.511-.595 2.411.546.579.9 1.672 1.752 1.8.225-.851.45-1.671.675-2.523 1.88 1.977-1.897 3.07 3.279 4.854-.193-1.077-.354-2.106-.225-3.215 2.507 2.09-1.061 3.392 4.677 4.067-.643-.756-.788-1.591-1.029-2.443.964.16 1.736 1.077 2.347 1.768.594.9 1.028 1.382 2.378.514.065.145.08.37.193.45.611.466.354 1.029.354 1.64h.16c.804-.804.852-1.736.611-2.733-.562-1.912-2.877-.385-3.696-2.33 1.093.739 2.186 1.173 3.391.562.675.627.964 1.093 1.286 1.993.546-2.057-.08-4.147-2.25-3.52-.675.225-.949.177-1.624-.402 1.013.338 1.672-.177 2.315-.627.145.177.209.37.305.386.61.033 1.013.402 1.382.852.21-1.752-1.543-3.166-3.295-2.733-.434 2.154-2.234.933-3.664.66-2.218-1.302-3.391-3.794-5.352-5.417.193-2.41-1.8-4.324-4.211-4.195 2.17-.932 4.741.932 4.918 3.199.08.916.643 1.51 1.238 2.201 7.329-14.77 31.036-18.628 44.633-9.257 1.157 1.06 2.427 1.928 3.616 3.053.483-1.414.193-3.085 2.299-2.234l.402-.273c-.434-1.19.45-2.54 1.703-2.62v.933c-.546.08-.98.61-.884 1.189.418-.096.804.45.579.82.386.225.948.128 1.238-.193.353.016.707.064 1.06.096-.482 1.125-2.137 1.51-3.086.691.177.241-.626 2.748-.659 3.054a.78.78 0 0 1-.803.578c.16.258.273.45.418.675.594-.337 1.414-.305 1.35-1.157.112-.466-.193-2.684.482-2.475.273.836-.241 1.8.37 2.62 1.96-.482 1.109-2.266 3.487-2.716.949-.097 2.942-.547 3.44.402-2.074-.563-4.758.016-5.208 2.378-2.17.515-3.986 2.058-6.284 2.058-1.832.096-2.33 2.298-2.411 3.809-.29 1.72-.386 3.52-1.157 5.127-.386.61-.064 1.318.145 1.88.69.37 1.189 2.797 1.301 3.665-.016 1.591 2.717 2.122 3.826 3.102.305-1.977-3.472-1.414-2.942-4.195.676 1.832 2.138 2.218 3.745 3.118-.498-1.848-.659-4.95-3.246-4.564-1.013-1.383.45-1.463-.017-3.135.74.242 1.093.499 1.302.965-.241-.08-.434-.145-.755-.241.08 1.173 1.109 1.462 1.88 2.266-.128-1.929-.29-3.15-2.09-4.083-1.012-.932.162-3.07.081-4.355-.033-.386 2.41-1.591 2.78-1.495 1.8.241 3.681-.048 5.433.402 1.736.563.241-3.214 3.054-1.238-2.025-.594-.788 1.624-2.266 1.736-1.03.017-1.897-.08-2.958-.112 3.68 8.213 11.878 5.802 14.128 13.147 1.897-1.671.61-1.64.08-3.375 4.26 2.829-3.97 6.124-.884 11.09-.193-.546 1.752-2.877 1.961-3.359.354-.53.948-.563 1.35-.177l.611-1.27c-1.141-.643.932-3.327 1.077-4.082.209-.466.707-.691 1.093-.498l.562-1.592c-1.077-.289-.273-2.925-.354-3.648-1.526-1.382-2.764-3.102-3.953-4.71l.723-.112c-.08.354.048.756.353.965.53.193 2.54 2.121 3.167 1.671l.305.852c-.498.145-.595.852-.595 1.334.273.225.563.434.82.675.033-.177.016-.948.16-1.077a.625.625 0 0 0 .933.08c.257.113-.048 1.817-.033 2.026.305.321.579.659.852.996-.112-.771.836-3.76-.482-3.905M0 278.875h6.67V0H0zm0 0"/>
</svg>
